<?xml version="1.0" encoding="UTF-8" standalone="no"?>
<!-- Created with Inkscape (http://www.inkscape.org/) -->

<svg
   width="700.70099"
   height="200.52"
   viewBox="0 0 185.39379 53.054249"
   version="1.1"
   id="svg1"
   inkscape:version="1.3.1 (9b9bdc1480, 2023-11-25, custom)"
   sodipodi:docname="timelineIL.svg"
   xmlns:inkscape="http://www.inkscape.org/namespaces/inkscape"
   xmlns:sodipodi="http://sodipodi.sourceforge.net/DTD/sodipodi-0.dtd"
   xmlns="http://www.w3.org/2000/svg"
   xmlns:svg="http://www.w3.org/2000/svg">
  <sodipodi:namedview
     id="namedview1"
     pagecolor="#ffffff"
     bordercolor="#000000"
     borderopacity="0.25"
     inkscape:showpageshadow="2"
     inkscape:pageopacity="0.0"
     inkscape:pagecheckerboard="0"
     inkscape:deskcolor="#d1d1d1"
     inkscape:document-units="mm"
     inkscape:zoom="2.1872222"
     inkscape:cx="345.18669"
     inkscape:cy="24.688849"
     inkscape:window-width="2494"
     inkscape:window-height="1371"
     inkscape:window-x="66"
     inkscape:window-y="32"
     inkscape:window-maximized="1"
     inkscape:current-layer="g38" />
  <defs
     id="defs1">
    <inkscape:path-effect
       effect="bspline"
       id="path-effect69"
       is_visible="true"
       lpeversion="1.3"
       weight="33.333333"
       steps="2"
       helper_size="0"
       apply_no_weight="true"
       apply_with_weight="true"
       only_selected="false"
       uniform="false" />
    <inkscape:path-effect
       effect="bspline"
       id="path-effect67"
       is_visible="true"
       lpeversion="1.3"
       weight="33.333333"
       steps="2"
       helper_size="0"
       apply_no_weight="true"
       apply_with_weight="true"
       only_selected="false"
       uniform="false" />
    <inkscape:path-effect
       effect="bspline"
       id="path-effect65"
       is_visible="true"
       lpeversion="1.3"
       weight="33.333333"
       steps="2"
       helper_size="0"
       apply_no_weight="true"
       apply_with_weight="true"
       only_selected="false"
       uniform="false" />
    <inkscape:path-effect
       effect="bspline"
       id="path-effect63"
       is_visible="true"
       lpeversion="1.3"
       weight="33.333333"
       steps="2"
       helper_size="0"
       apply_no_weight="true"
       apply_with_weight="true"
       only_selected="false"
       uniform="false" />
    <inkscape:path-effect
       effect="bspline"
       id="path-effect61"
       is_visible="true"
       lpeversion="1.3"
       weight="33.333333"
       steps="2"
       helper_size="0"
       apply_no_weight="true"
       apply_with_weight="true"
       only_selected="false"
       uniform="false" />
    <inkscape:path-effect
       effect="bspline"
       id="path-effect59"
       is_visible="true"
       lpeversion="1.3"
       weight="33.333333"
       steps="2"
       helper_size="0"
       apply_no_weight="true"
       apply_with_weight="true"
       only_selected="false"
       uniform="false" />
    <inkscape:path-effect
       effect="bspline"
       id="path-effect57"
       is_visible="true"
       lpeversion="1.3"
       weight="33.333333"
       steps="2"
       helper_size="0"
       apply_no_weight="true"
       apply_with_weight="true"
       only_selected="false"
       uniform="false" />
    <inkscape:path-effect
       effect="bspline"
       id="path-effect55"
       is_visible="true"
       lpeversion="1.3"
       weight="33.333333"
       steps="2"
       helper_size="0"
       apply_no_weight="true"
       apply_with_weight="true"
       only_selected="false"
       uniform="false" />
    <inkscape:path-effect
       effect="bspline"
       id="path-effect53"
       is_visible="true"
       lpeversion="1.3"
       weight="33.333333"
       steps="2"
       helper_size="0"
       apply_no_weight="true"
       apply_with_weight="true"
       only_selected="false"
       uniform="false" />
    <inkscape:path-effect
       effect="bspline"
       id="path-effect51"
       is_visible="true"
       lpeversion="1.3"
       weight="33.333333"
       steps="2"
       helper_size="0"
       apply_no_weight="true"
       apply_with_weight="true"
       only_selected="false"
       uniform="false" />
    <inkscape:path-effect
       effect="bspline"
       id="path-effect49"
       is_visible="true"
       lpeversion="1.3"
       weight="33.333333"
       steps="2"
       helper_size="0"
       apply_no_weight="true"
       apply_with_weight="true"
       only_selected="false"
       uniform="false" />
    <inkscape:path-effect
       effect="bspline"
       id="path-effect47"
       is_visible="true"
       lpeversion="1.3"
       weight="33.333333"
       steps="2"
       helper_size="0"
       apply_no_weight="true"
       apply_with_weight="true"
       only_selected="false"
       uniform="false" />
    <inkscape:path-effect
       effect="bspline"
       id="path-effect45"
       is_visible="true"
       lpeversion="1.3"
       weight="33.333333"
       steps="2"
       helper_size="0"
       apply_no_weight="true"
       apply_with_weight="true"
       only_selected="false"
       uniform="false" />
    <inkscape:path-effect
       effect="bspline"
       id="path-effect43"
       is_visible="true"
       lpeversion="1.3"
       weight="33.333333"
       steps="2"
       helper_size="0"
       apply_no_weight="true"
       apply_with_weight="true"
       only_selected="false"
       uniform="false" />
    <inkscape:path-effect
       effect="bspline"
       id="path-effect41"
       is_visible="true"
       lpeversion="1.3"
       weight="33.333333"
       steps="2"
       helper_size="0"
       apply_no_weight="true"
       apply_with_weight="true"
       only_selected="false"
       uniform="false" />
    <inkscape:path-effect
       effect="bspline"
       id="path-effect39"
       is_visible="true"
       lpeversion="1.3"
       weight="33.333333"
       steps="2"
       helper_size="0"
       apply_no_weight="true"
       apply_with_weight="true"
       only_selected="false"
       uniform="false" />
    <inkscape:path-effect
       effect="bspline"
       id="path-effect26"
       is_visible="true"
       lpeversion="1.3"
       weight="33.333333"
       steps="2"
       helper_size="0"
       apply_no_weight="true"
       apply_with_weight="true"
       only_selected="false"
       uniform="false" />
    <inkscape:path-effect
       effect="bspline"
       id="path-effect24"
       is_visible="true"
       lpeversion="1.3"
       weight="33.333333"
       steps="2"
       helper_size="0"
       apply_no_weight="true"
       apply_with_weight="true"
       only_selected="false"
       uniform="false" />
    <inkscape:path-effect
       effect="bspline"
       id="path-effect22"
       is_visible="true"
       lpeversion="1.3"
       weight="33.333333"
       steps="2"
       helper_size="0"
       apply_no_weight="true"
       apply_with_weight="true"
       only_selected="false"
       uniform="false" />
    <inkscape:path-effect
       effect="bspline"
       id="path-effect17"
       is_visible="true"
       lpeversion="1.3"
       weight="33.333333"
       steps="2"
       helper_size="0"
       apply_no_weight="true"
       apply_with_weight="true"
       only_selected="false"
       uniform="false" />
    <inkscape:path-effect
       effect="bspline"
       id="path-effect15"
       is_visible="true"
       lpeversion="1.3"
       weight="33.333333"
       steps="2"
       helper_size="0"
       apply_no_weight="true"
       apply_with_weight="true"
       only_selected="false"
       uniform="false" />
    <inkscape:path-effect
       effect="bspline"
       id="path-effect13"
       is_visible="true"
       lpeversion="1.3"
       weight="33.333333"
       steps="2"
       helper_size="0"
       apply_no_weight="true"
       apply_with_weight="true"
       only_selected="false"
       uniform="false" />
    <inkscape:path-effect
       effect="bspline"
       id="path-effect5"
       is_visible="true"
       lpeversion="1.3"
       weight="33.333333"
       steps="2"
       helper_size="0"
       apply_no_weight="true"
       apply_with_weight="true"
       only_selected="false"
       uniform="false" />
    <inkscape:path-effect
       effect="bspline"
       id="path-effect4"
       is_visible="true"
       lpeversion="1.3"
       weight="33.333333"
       steps="2"
       helper_size="0"
       apply_no_weight="true"
       apply_with_weight="true"
       only_selected="false"
       uniform="false" />
    <marker
       style="overflow:visible"
       id="marker3"
       refX="0"
       refY="0"
       orient="auto-start-reverse"
       inkscape:stockid="Concave triangle arrow"
       markerWidth="1"
       markerHeight="1"
       viewBox="0 0 1 1"
       inkscape:isstock="true"
       inkscape:collect="always"
       preserveAspectRatio="xMidYMid">
      <path
         transform="scale(0.7)"
         d="M -2,-4 9,0 -2,4 c 2,-2.33 2,-5.66 0,-8 z"
         style="fill:context-stroke;fill-rule:evenodd;stroke:none"
         id="path3" />
    </marker>
    <inkscape:path-effect
       effect="bspline"
       id="path-effect3"
       is_visible="true"
       lpeversion="1.3"
       weight="33.333333"
       steps="2"
       helper_size="0"
       apply_no_weight="true"
       apply_with_weight="true"
       only_selected="false"
       uniform="false" />
    <marker
       orient="auto-start-reverse"
       refY="0"
       refX="0"
       id="ThreeDots"
       inkscape:stockid="Ellipsis"
       style="overflow:visible"
       markerWidth="1"
       markerHeight="1"
       viewBox="0 0 1 1"
       inkscape:isstock="true"
       inkscape:collect="always"
       preserveAspectRatio="xMidYMid">
      <g
         transform="scale(0.5)"
         id="g33">
        <circle
           cx="4"
           cy="0"
           r="1"
           style="fill:context-stroke;stroke:context-stroke"
           id="circle31" />
        <circle
           cx="8"
           cy="0"
           r="1"
           style="fill:context-stroke;stroke:context-stroke"
           id="circle32" />
        <circle
           cx="12"
           cy="0"
           r="1"
           style="fill:context-stroke;stroke:context-stroke"
           id="circle33" />
      </g>
    </marker>
    <inkscape:path-effect
       effect="bspline"
       id="path-effect2"
       is_visible="true"
       lpeversion="1.3"
       weight="33.333333"
       steps="2"
       helper_size="0"
       apply_no_weight="true"
       apply_with_weight="true"
       only_selected="false"
       uniform="false" />
    <inkscape:path-effect
       effect="bspline"
       id="path-effect1"
       is_visible="true"
       lpeversion="1.3"
       weight="33.333333"
       steps="2"
       helper_size="0"
       apply_no_weight="true"
       apply_with_weight="true"
       only_selected="false"
       uniform="false" />
  </defs>
  <g
     inkscape:label="Layer 1"
     inkscape:groupmode="layer"
     id="layer1">
    <path
       style="fill:#00aa44;fill-opacity:1;stroke:#0000ff;stroke-width:0.61;stroke-dasharray:none;stroke-opacity:1;marker-start:url(#ThreeDots);marker-end:url(#ThreeDots)"
       d="m 31.319393,138.06777 c 46.988727,0 93.977457,0 140.966177,0"
       id="path1"
       inkscape:path-effect="#path-effect1"
       inkscape:original-d="m 31.319393,138.06777 c 46.988727,0 93.977457,0 140.966177,0"
       transform="matrix(1.0680674,0,0,1,-7.6838637,-111.62618)" />
    <g
       id="g8"
       transform="translate(-17.611038,-117.80943)">
      <rect
         style="fill:#f6d5ff;fill-opacity:1;stroke:#00006d;stroke-width:0.227;stroke-dasharray:1.362, 0.227;stroke-dashoffset:0;stroke-opacity:0.424566"
         id="rect2"
         width="22.280033"
         height="8.6571445"
         x="24.332664"
         y="126.14912"
         ry="3.7413723" />
      <path
         style="fill:none;fill-opacity:1;stroke:#0000cf;stroke-width:0.427;stroke-dasharray:none;stroke-opacity:1;marker-end:url(#marker3)"
         d="m 51.704242,132.14237 c 0.137496,0.19225 0.274985,0.38449 0.476067,1.12785 0.201082,0.74336 0.465714,2.03768 1.007896,3.53622 0.542182,1.49855 1.36184,3.2011 2.48514,4.12868 1.1233,0.92758 2.550116,1.08008 3.97697,1.23258"
         id="path2"
         inkscape:path-effect="#path-effect3"
         inkscape:original-d="m 51.704242,132.14237 c 0,0 0.274986,0.38449 0.412488,0.57675 0.264661,1.29446 0.529292,2.58878 0.793947,3.88321 0.819709,1.70266 1.639365,3.40521 2.459079,5.10787 1.426888,0.15251 2.853705,0.305 4.280559,0.4575"
         sodipodi:nodetypes="ccccc"
         transform="translate(0.6048386,2.1688578)" />
      <path
         style="fill:none;fill-opacity:1;stroke:#0000cf;stroke-width:0.127;stroke-dasharray:none;stroke-opacity:1"
         d="m 44.878796,134.16567 c 0.714248,-0.43069 1.428492,-0.86137 2.058931,-1.13832 0.630438,-0.27696 1.177044,-0.40017 1.629866,-0.46161 0.452822,-0.0614 0.811837,-0.0611 1.167987,0.0581 0.356151,0.11916 0.709416,0.35714 1.025244,0.57407 0.315828,0.21693 0.594196,0.41279 0.863308,0.66525 0.269112,0.25246 0.528947,0.5615 0.788789,0.87055"
         id="path4"
         inkscape:path-effect="#path-effect4"
         inkscape:original-d="m 44.878796,134.16567 c 0.714246,-0.43069 1.428494,-0.86137 2.142739,-1.29206 0.546629,-0.12322 1.093235,-0.24643 1.639851,-0.36964 0.359029,2.6e-4 0.718044,7.9e-4 1.077065,10e-4 0.35328,0.23799 0.706546,0.47597 1.059821,0.71396 0.278378,0.19587 0.556746,0.39173 0.835123,0.58759 0.259847,0.30906 0.519684,0.6181 0.779526,0.92715" />
      <path
         style="fill:none;fill-opacity:1;stroke:#0000cf;stroke-width:0.127;stroke-dasharray:none;stroke-opacity:1"
         d="m 52.58055,134.30872 c -0.28178,-1.08078 -0.563561,-2.16156 -1.092279,-3.14572 -0.528717,-0.98416 -1.30434,-1.87166 -2.01875,-2.46003 -0.71441,-0.58836 -1.367557,-0.87755 -2.069991,-1.153 -0.702434,-0.27546 -1.454086,-0.53717 -2.056085,-0.73378 -0.601999,-0.19661 -1.054262,-0.3281 -1.506539,-0.4596"
         id="path5"
         inkscape:path-effect="#path-effect5"
         inkscape:original-d="m 52.58055,134.30872 c -0.28178,-1.08078 -0.563561,-2.16156 -0.845341,-3.24234 -0.775655,-0.88754 -1.551281,-1.77504 -2.326923,-2.66257 -0.653174,-0.2892 -1.306325,-0.57838 -1.959486,-0.86758 -0.751705,-0.26172 -1.503355,-0.52343 -2.255064,-0.78515 -0.45229,-0.1315 -0.904554,-0.26299 -1.35683,-0.39449"
         sodipodi:nodetypes="cccccc" />
      <path
         style="fill:#ffdbff;fill-opacity:1;stroke:#0000cf;stroke-width:0.0775896;stroke-dasharray:none;stroke-opacity:1"
         d="m 196.15613,506.54798 c -1.87151,-1.99794 -5.88645,-4.8053 -7.95277,-5.56081 -0.73828,-0.26993 -1.31585,-0.34396 -2.7158,-0.34808 -3.16251,-0.009 -6.27657,0.8298 -9.897,2.66681 -1.20005,0.60891 -2.21281,1.10712 -2.25058,1.10712 -0.0378,0 0.2342,-0.44599 0.60437,-0.99108 0.90139,-1.32735 1.8225,-3.33011 2.25774,-4.90896 0.49279,-1.78762 0.63774,-7.17771 0.25276,-9.3996 -0.54255,-3.13143 -1.92814,-5.88626 -4.10837,-8.16828 -0.66407,-0.69507 -1.13116,-1.26376 -1.03799,-1.26376 0.30565,0 4.91023,1.62598 7.63245,2.69518 4.47988,1.75956 6.79048,3.21659 9.75754,6.15295 3.81544,3.77597 6.12998,7.56978 7.91518,12.97394 1.29695,3.92612 1.66167,5.42477 1.39762,5.74293 -0.5091,0.61343 -0.69026,0.54524 -1.85515,-0.69836 z"
         id="path7"
         transform="scale(0.26458333)" />
      <text
         xml:space="preserve"
         style="font-style:normal;font-variant:normal;font-weight:normal;font-stretch:normal;font-size:2.82222px;font-family:'URW Bookman';-inkscape-font-specification:'URW Bookman, Normal';font-variant-ligatures:normal;font-variant-caps:normal;font-variant-numeric:normal;font-variant-east-asian:normal;fill:#000000;fill-opacity:1;stroke:none;stroke-width:0.127;stroke-dasharray:1.362, 0.227;stroke-dashoffset:0;stroke-opacity:0.424566"
         x="35.299149"
         y="129.45752"
         id="text7"><tspan
           sodipodi:role="line"
           id="tspan7"
           x="35.299149"
           y="129.45752"
           style="text-align:center;text-anchor:middle">Behaviour  </tspan><tspan
           sodipodi:role="line"
           id="tspan8"
           x="35.299149"
           y="132.98529"
           style="text-align:center;text-anchor:middle">Cloning</tspan></text>
    </g>
    <g
       id="g12"
       transform="translate(47.530732,-117.80943)">
      <rect
         style="fill:#f6d5ff;fill-opacity:1;stroke:#00006d;stroke-width:0.227;stroke-dasharray:1.362, 0.227;stroke-dashoffset:0;stroke-opacity:0.424566"
         id="rect8"
         width="22.280033"
         height="8.6571445"
         x="24.332664"
         y="126.14912"
         ry="3.7413723" />
      <path
         style="fill:none;fill-opacity:1;stroke:#0000cf;stroke-width:0.427;stroke-dasharray:none;stroke-opacity:1;marker-end:url(#marker3)"
         d="m 51.704242,132.14237 c 0.137496,0.19225 0.274985,0.38449 0.476067,1.12785 0.201082,0.74336 0.465714,2.03768 1.007896,3.53622 0.542182,1.49855 1.36184,3.2011 2.48514,4.12868 1.1233,0.92758 2.550116,1.08008 3.97697,1.23258"
         id="path8"
         inkscape:path-effect="#path-effect13"
         inkscape:original-d="m 51.704242,132.14237 c 0,0 0.274986,0.38449 0.412488,0.57675 0.264661,1.29446 0.529292,2.58878 0.793947,3.88321 0.819709,1.70266 1.639365,3.40521 2.459079,5.10787 1.426888,0.15251 2.853705,0.305 4.280559,0.4575"
         sodipodi:nodetypes="ccccc"
         transform="translate(0.6048386,2.1688578)" />
      <path
         style="fill:none;fill-opacity:1;stroke:#0000cf;stroke-width:0.127;stroke-dasharray:none;stroke-opacity:1"
         d="m 44.878796,134.16567 c 0.714248,-0.43069 1.428492,-0.86137 2.058931,-1.13832 0.630438,-0.27696 1.177044,-0.40017 1.629866,-0.46161 0.452822,-0.0614 0.811837,-0.0611 1.167987,0.0581 0.356151,0.11916 0.709416,0.35714 1.025244,0.57407 0.315828,0.21693 0.594196,0.41279 0.863308,0.66525 0.269112,0.25246 0.528947,0.5615 0.788789,0.87055"
         id="path9"
         inkscape:path-effect="#path-effect15"
         inkscape:original-d="m 44.878796,134.16567 c 0.714246,-0.43069 1.428494,-0.86137 2.142739,-1.29206 0.546629,-0.12322 1.093235,-0.24643 1.639851,-0.36964 0.359029,2.6e-4 0.718044,7.9e-4 1.077065,10e-4 0.35328,0.23799 0.706546,0.47597 1.059821,0.71396 0.278378,0.19587 0.556746,0.39173 0.835123,0.58759 0.259847,0.30906 0.519684,0.6181 0.779526,0.92715" />
      <path
         style="fill:none;fill-opacity:1;stroke:#0000cf;stroke-width:0.127;stroke-dasharray:none;stroke-opacity:1"
         d="m 52.58055,134.30872 c -0.28178,-1.08078 -0.563561,-2.16156 -1.092279,-3.14572 -0.528717,-0.98416 -1.30434,-1.87166 -2.01875,-2.46003 -0.71441,-0.58836 -1.367557,-0.87755 -2.069991,-1.153 -0.702434,-0.27546 -1.454086,-0.53717 -2.056085,-0.73378 -0.601999,-0.19661 -1.054262,-0.3281 -1.506539,-0.4596"
         id="path10"
         inkscape:path-effect="#path-effect17"
         inkscape:original-d="m 52.58055,134.30872 c -0.28178,-1.08078 -0.563561,-2.16156 -0.845341,-3.24234 -0.775655,-0.88754 -1.551281,-1.77504 -2.326923,-2.66257 -0.653174,-0.2892 -1.306325,-0.57838 -1.959486,-0.86758 -0.751705,-0.26172 -1.503355,-0.52343 -2.255064,-0.78515 -0.45229,-0.1315 -0.904554,-0.26299 -1.35683,-0.39449"
         sodipodi:nodetypes="cccccc" />
      <path
         style="fill:#ffdbff;fill-opacity:1;stroke:#0000cf;stroke-width:0.0775896;stroke-dasharray:none;stroke-opacity:1"
         d="m 196.15613,506.54798 c -1.87151,-1.99794 -5.88645,-4.8053 -7.95277,-5.56081 -0.73828,-0.26993 -1.31585,-0.34396 -2.7158,-0.34808 -3.16251,-0.009 -6.27657,0.8298 -9.897,2.66681 -1.20005,0.60891 -2.21281,1.10712 -2.25058,1.10712 -0.0378,0 0.2342,-0.44599 0.60437,-0.99108 0.90139,-1.32735 1.8225,-3.33011 2.25774,-4.90896 0.49279,-1.78762 0.63774,-7.17771 0.25276,-9.3996 -0.54255,-3.13143 -1.92814,-5.88626 -4.10837,-8.16828 -0.66407,-0.69507 -1.13116,-1.26376 -1.03799,-1.26376 0.30565,0 4.91023,1.62598 7.63245,2.69518 4.47988,1.75956 6.79048,3.21659 9.75754,6.15295 3.81544,3.77597 6.12998,7.56978 7.91518,12.97394 1.29695,3.92612 1.66167,5.42477 1.39762,5.74293 -0.5091,0.61343 -0.69026,0.54524 -1.85515,-0.69836 z"
         id="path11"
         transform="scale(0.26458333)" />
      <text
         xml:space="preserve"
         style="font-style:normal;font-variant:normal;font-weight:normal;font-stretch:normal;font-size:2.82222px;font-family:'URW Bookman';-inkscape-font-specification:'URW Bookman, Normal';font-variant-ligatures:normal;font-variant-caps:normal;font-variant-numeric:normal;font-variant-east-asian:normal;fill:#000000;fill-opacity:1;stroke:none;stroke-width:0.127;stroke-dasharray:1.362, 0.227;stroke-dashoffset:0;stroke-opacity:0.424566"
         x="35.299149"
         y="131.15106"
         id="text12"><tspan
           sodipodi:role="line"
           id="tspan12"
           x="35.299149"
           y="131.15106"
           style="text-align:center;text-anchor:middle">GAIL</tspan></text>
    </g>
    <g
       id="g21"
       transform="translate(78.550305,-117.80943)">
      <rect
         style="fill:#f6d5ff;fill-opacity:1;stroke:#00006d;stroke-width:0.227;stroke-dasharray:1.362, 0.227;stroke-dashoffset:0;stroke-opacity:0.424566"
         id="rect17"
         width="22.280033"
         height="8.6571445"
         x="24.332664"
         y="126.14912"
         ry="3.7413723" />
      <path
         style="fill:none;fill-opacity:1;stroke:#0000cf;stroke-width:0.427;stroke-dasharray:none;stroke-opacity:1;marker-end:url(#marker3)"
         d="m 51.704242,132.14237 c 0.137496,0.19225 0.274985,0.38449 0.476067,1.12785 0.201082,0.74336 0.465714,2.03768 1.007896,3.53622 0.542182,1.49855 1.36184,3.2011 2.48514,4.12868 1.1233,0.92758 2.550116,1.08008 3.97697,1.23258"
         id="path17"
         inkscape:path-effect="#path-effect22"
         inkscape:original-d="m 51.704242,132.14237 c 0,0 0.274986,0.38449 0.412488,0.57675 0.264661,1.29446 0.529292,2.58878 0.793947,3.88321 0.819709,1.70266 1.639365,3.40521 2.459079,5.10787 1.426888,0.15251 2.853705,0.305 4.280559,0.4575"
         sodipodi:nodetypes="ccccc"
         transform="translate(0.6048386,2.1688578)" />
      <path
         style="fill:none;fill-opacity:1;stroke:#0000cf;stroke-width:0.127;stroke-dasharray:none;stroke-opacity:1"
         d="m 44.878796,134.16567 c 0.714248,-0.43069 1.428492,-0.86137 2.058931,-1.13832 0.630438,-0.27696 1.177044,-0.40017 1.629866,-0.46161 0.452822,-0.0614 0.811837,-0.0611 1.167987,0.0581 0.356151,0.11916 0.709416,0.35714 1.025244,0.57407 0.315828,0.21693 0.594196,0.41279 0.863308,0.66525 0.269112,0.25246 0.528947,0.5615 0.788789,0.87055"
         id="path18"
         inkscape:path-effect="#path-effect24"
         inkscape:original-d="m 44.878796,134.16567 c 0.714246,-0.43069 1.428494,-0.86137 2.142739,-1.29206 0.546629,-0.12322 1.093235,-0.24643 1.639851,-0.36964 0.359029,2.6e-4 0.718044,7.9e-4 1.077065,10e-4 0.35328,0.23799 0.706546,0.47597 1.059821,0.71396 0.278378,0.19587 0.556746,0.39173 0.835123,0.58759 0.259847,0.30906 0.519684,0.6181 0.779526,0.92715" />
      <path
         style="fill:none;fill-opacity:1;stroke:#0000cf;stroke-width:0.127;stroke-dasharray:none;stroke-opacity:1"
         d="m 52.58055,134.30872 c -0.28178,-1.08078 -0.563561,-2.16156 -1.092279,-3.14572 -0.528717,-0.98416 -1.30434,-1.87166 -2.01875,-2.46003 -0.71441,-0.58836 -1.367557,-0.87755 -2.069991,-1.153 -0.702434,-0.27546 -1.454086,-0.53717 -2.056085,-0.73378 -0.601999,-0.19661 -1.054262,-0.3281 -1.506539,-0.4596"
         id="path19"
         inkscape:path-effect="#path-effect26"
         inkscape:original-d="m 52.58055,134.30872 c -0.28178,-1.08078 -0.563561,-2.16156 -0.845341,-3.24234 -0.775655,-0.88754 -1.551281,-1.77504 -2.326923,-2.66257 -0.653174,-0.2892 -1.306325,-0.57838 -1.959486,-0.86758 -0.751705,-0.26172 -1.503355,-0.52343 -2.255064,-0.78515 -0.45229,-0.1315 -0.904554,-0.26299 -1.35683,-0.39449"
         sodipodi:nodetypes="cccccc" />
      <path
         style="fill:#ffdbff;fill-opacity:1;stroke:#0000cf;stroke-width:0.0775896;stroke-dasharray:none;stroke-opacity:1"
         d="m 196.15613,506.54798 c -1.87151,-1.99794 -5.88645,-4.8053 -7.95277,-5.56081 -0.73828,-0.26993 -1.31585,-0.34396 -2.7158,-0.34808 -3.16251,-0.009 -6.27657,0.8298 -9.897,2.66681 -1.20005,0.60891 -2.21281,1.10712 -2.25058,1.10712 -0.0378,0 0.2342,-0.44599 0.60437,-0.99108 0.90139,-1.32735 1.8225,-3.33011 2.25774,-4.90896 0.49279,-1.78762 0.63774,-7.17771 0.25276,-9.3996 -0.54255,-3.13143 -1.92814,-5.88626 -4.10837,-8.16828 -0.66407,-0.69507 -1.13116,-1.26376 -1.03799,-1.26376 0.30565,0 4.91023,1.62598 7.63245,2.69518 4.47988,1.75956 6.79048,3.21659 9.75754,6.15295 3.81544,3.77597 6.12998,7.56978 7.91518,12.97394 1.29695,3.92612 1.66167,5.42477 1.39762,5.74293 -0.5091,0.61343 -0.69026,0.54524 -1.85515,-0.69836 z"
         id="path20"
         transform="scale(0.26458333)" />
      <text
         xml:space="preserve"
         style="font-style:normal;font-variant:normal;font-weight:normal;font-stretch:normal;font-size:2.82222px;font-family:'URW Bookman';-inkscape-font-specification:'URW Bookman, Normal';font-variant-ligatures:normal;font-variant-caps:normal;font-variant-numeric:normal;font-variant-east-asian:normal;fill:#000000;fill-opacity:1;stroke:none;stroke-width:0.127;stroke-dasharray:1.362, 0.227;stroke-dashoffset:0;stroke-opacity:0.424566"
         x="35.496342"
         y="131.1595"
         id="text21"><tspan
           sodipodi:role="line"
           id="tspan21"
           x="35.496342"
           y="131.1595"
           style="text-align:center;text-anchor:middle">InfoGAIL</tspan></text>
    </g>
    <g
       id="g30"
       transform="matrix(1,0,0,-1,-21.181427,207.75856)">
      <rect
         style="fill:#f6d5ff;fill-opacity:1;stroke:#00006d;stroke-width:0.227;stroke-dasharray:1.362, 0.227;stroke-dashoffset:0;stroke-opacity:0.424566"
         id="rect26"
         width="22.280033"
         height="8.6571445"
         x="46.53931"
         y="162.88908"
         ry="3.7413723" />
      <path
         style="fill:none;fill-opacity:1;stroke:#0000cf;stroke-width:0.427;stroke-dasharray:none;stroke-opacity:1;marker-end:url(#marker3)"
         d="m 51.704242,132.14237 c 0.137496,0.19225 0.274985,0.38449 0.476067,1.12785 0.201082,0.74336 0.465714,2.03768 1.007896,3.53622 0.542182,1.49855 1.36184,3.2011 2.48514,4.12868 1.1233,0.92758 2.550116,1.08008 3.97697,1.23258"
         id="path26"
         inkscape:path-effect="#path-effect39"
         inkscape:original-d="m 51.704242,132.14237 c 0,0 0.274986,0.38449 0.412488,0.57675 0.264661,1.29446 0.529292,2.58878 0.793947,3.88321 0.819709,1.70266 1.639365,3.40521 2.459079,5.10787 1.426888,0.15251 2.853705,0.305 4.280559,0.4575"
         sodipodi:nodetypes="ccccc"
         transform="translate(22.811486,38.908822)" />
      <path
         style="fill:none;fill-opacity:1;stroke:#0000cf;stroke-width:0.127;stroke-dasharray:none;stroke-opacity:1"
         d="m 44.878796,134.16567 c 0.714248,-0.43069 1.428492,-0.86137 2.058931,-1.13832 0.630438,-0.27696 1.177044,-0.40017 1.629866,-0.46161 0.452822,-0.0614 0.811837,-0.0611 1.167987,0.0581 0.356151,0.11916 0.709416,0.35714 1.025244,0.57407 0.315828,0.21693 0.594196,0.41279 0.863308,0.66525 0.269112,0.25246 0.528947,0.5615 0.788789,0.87055"
         id="path27"
         inkscape:path-effect="#path-effect41"
         inkscape:original-d="m 44.878796,134.16567 c 0.714246,-0.43069 1.428494,-0.86137 2.142739,-1.29206 0.546629,-0.12322 1.093235,-0.24643 1.639851,-0.36964 0.359029,2.6e-4 0.718044,7.9e-4 1.077065,10e-4 0.35328,0.23799 0.706546,0.47597 1.059821,0.71396 0.278378,0.19587 0.556746,0.39173 0.835123,0.58759 0.259847,0.30906 0.519684,0.6181 0.779526,0.92715"
         transform="translate(22.206647,36.739965)" />
      <path
         style="fill:none;fill-opacity:1;stroke:#0000cf;stroke-width:0.127;stroke-dasharray:none;stroke-opacity:1"
         d="m 52.58055,134.30872 c -0.28178,-1.08078 -0.563561,-2.16156 -1.092279,-3.14572 -0.528717,-0.98416 -1.30434,-1.87166 -2.01875,-2.46003 -0.71441,-0.58836 -1.367557,-0.87755 -2.069991,-1.153 -0.702434,-0.27546 -1.454086,-0.53717 -2.056085,-0.73378 -0.601999,-0.19661 -1.054262,-0.3281 -1.506539,-0.4596"
         id="path28"
         inkscape:path-effect="#path-effect43"
         inkscape:original-d="m 52.58055,134.30872 c -0.28178,-1.08078 -0.563561,-2.16156 -0.845341,-3.24234 -0.775655,-0.88754 -1.551281,-1.77504 -2.326923,-2.66257 -0.653174,-0.2892 -1.306325,-0.57838 -1.959486,-0.86758 -0.751705,-0.26172 -1.503355,-0.52343 -2.255064,-0.78515 -0.45229,-0.1315 -0.904554,-0.26299 -1.35683,-0.39449"
         sodipodi:nodetypes="cccccc"
         transform="translate(22.206647,36.739965)" />
      <path
         style="fill:#ffdbff;fill-opacity:1;stroke:#0000cf;stroke-width:0.0205289;stroke-dasharray:none;stroke-opacity:1"
         d="m 74.106289,170.76412 c -0.49517,-0.52863 -1.557456,-1.27141 -2.10417,-1.4713 -0.195337,-0.0714 -0.348152,-0.091 -0.718555,-0.0921 -0.836748,-0.002 -1.660676,0.21955 -2.618582,0.7056 -0.317513,0.1611 -0.585472,0.29292 -0.595466,0.29292 -0.01,0 0.06197,-0.118 0.159907,-0.26222 0.238492,-0.3512 0.482203,-0.88109 0.59736,-1.29883 0.130384,-0.47298 0.168735,-1.8991 0.06688,-2.48698 -0.14355,-0.82852 -0.510154,-1.5574 -1.087006,-2.16119 -0.175702,-0.1839 -0.299286,-0.33437 -0.274635,-0.33437 0.08087,0 1.299165,0.43021 2.019419,0.7131 1.185302,0.46555 1.796648,0.85106 2.581683,1.62797 1.009501,0.99906 1.62189,2.00284 2.094224,3.43269 0.343152,1.03878 0.43965,1.4353 0.369787,1.51948 -0.134699,0.1623 -0.182631,0.14426 -0.490842,-0.18477 z"
         id="path29" />
      <text
         xml:space="preserve"
         style="font-style:normal;font-variant:normal;font-weight:normal;font-stretch:normal;font-size:2.82222px;font-family:'URW Bookman';-inkscape-font-specification:'URW Bookman, Normal';font-variant-ligatures:normal;font-variant-caps:normal;font-variant-numeric:normal;font-variant-east-asian:normal;fill:#000000;fill-opacity:1;stroke:none;stroke-width:0.127;stroke-dasharray:1.362, 0.227;stroke-dashoffset:0;stroke-opacity:0.424566"
         x="57.505795"
         y="-168.38188"
         id="text30"
         transform="scale(1,-1)"><tspan
           sodipodi:role="line"
           id="tspan30"
           x="57.505795"
           y="-168.38188"
           style="text-align:center;text-anchor:middle">Maximum</tspan><tspan
           sodipodi:role="line"
           x="57.505795"
           y="-164.85411"
           style="text-align:center;text-anchor:middle"
           id="tspan55">Entropy IRL</tspan></text>
    </g>
    <g
       id="g34"
       transform="matrix(1,0,0,-1,76.569048,171.0186)">
      <rect
         style="fill:#f6d5ff;fill-opacity:1;stroke:#00006d;stroke-width:0.227;stroke-dasharray:1.362, 0.227;stroke-dashoffset:0;stroke-opacity:0.424566"
         id="rect30"
         width="22.280033"
         height="8.6571445"
         x="24.332664"
         y="126.14912"
         ry="3.7413723" />
      <path
         style="fill:none;fill-opacity:1;stroke:#0000cf;stroke-width:0.427;stroke-dasharray:none;stroke-opacity:1;marker-end:url(#marker3)"
         d="m 51.704242,132.14237 c 0.137496,0.19225 0.274985,0.38449 0.476067,1.12785 0.201082,0.74336 0.465714,2.03768 1.007896,3.53622 0.542182,1.49855 1.36184,3.2011 2.48514,4.12868 1.1233,0.92758 2.550116,1.08008 3.97697,1.23258"
         id="path30"
         inkscape:path-effect="#path-effect45"
         inkscape:original-d="m 51.704242,132.14237 c 0,0 0.274986,0.38449 0.412488,0.57675 0.264661,1.29446 0.529292,2.58878 0.793947,3.88321 0.819709,1.70266 1.639365,3.40521 2.459079,5.10787 1.426888,0.15251 2.853705,0.305 4.280559,0.4575"
         sodipodi:nodetypes="ccccc"
         transform="translate(0.6048386,2.1688578)" />
      <path
         style="fill:none;fill-opacity:1;stroke:#0000cf;stroke-width:0.127;stroke-dasharray:none;stroke-opacity:1"
         d="m 44.878796,134.16567 c 0.714248,-0.43069 1.428492,-0.86137 2.058931,-1.13832 0.630438,-0.27696 1.177044,-0.40017 1.629866,-0.46161 0.452822,-0.0614 0.811837,-0.0611 1.167987,0.0581 0.356151,0.11916 0.709416,0.35714 1.025244,0.57407 0.315828,0.21693 0.594196,0.41279 0.863308,0.66525 0.269112,0.25246 0.528947,0.5615 0.788789,0.87055"
         id="path31"
         inkscape:path-effect="#path-effect47"
         inkscape:original-d="m 44.878796,134.16567 c 0.714246,-0.43069 1.428494,-0.86137 2.142739,-1.29206 0.546629,-0.12322 1.093235,-0.24643 1.639851,-0.36964 0.359029,2.6e-4 0.718044,7.9e-4 1.077065,10e-4 0.35328,0.23799 0.706546,0.47597 1.059821,0.71396 0.278378,0.19587 0.556746,0.39173 0.835123,0.58759 0.259847,0.30906 0.519684,0.6181 0.779526,0.92715" />
      <path
         style="fill:none;fill-opacity:1;stroke:#0000cf;stroke-width:0.127;stroke-dasharray:none;stroke-opacity:1"
         d="m 52.58055,134.30872 c -0.28178,-1.08078 -0.563561,-2.16156 -1.092279,-3.14572 -0.528717,-0.98416 -1.30434,-1.87166 -2.01875,-2.46003 -0.71441,-0.58836 -1.367557,-0.87755 -2.069991,-1.153 -0.702434,-0.27546 -1.454086,-0.53717 -2.056085,-0.73378 -0.601999,-0.19661 -1.054262,-0.3281 -1.506539,-0.4596"
         id="path32"
         inkscape:path-effect="#path-effect49"
         inkscape:original-d="m 52.58055,134.30872 c -0.28178,-1.08078 -0.563561,-2.16156 -0.845341,-3.24234 -0.775655,-0.88754 -1.551281,-1.77504 -2.326923,-2.66257 -0.653174,-0.2892 -1.306325,-0.57838 -1.959486,-0.86758 -0.751705,-0.26172 -1.503355,-0.52343 -2.255064,-0.78515 -0.45229,-0.1315 -0.904554,-0.26299 -1.35683,-0.39449"
         sodipodi:nodetypes="cccccc" />
      <path
         style="fill:#ffdbff;fill-opacity:1;stroke:#0000cf;stroke-width:0.0775896;stroke-dasharray:none;stroke-opacity:1"
         d="m 196.15613,506.54798 c -1.87151,-1.99794 -5.88645,-4.8053 -7.95277,-5.56081 -0.73828,-0.26993 -1.31585,-0.34396 -2.7158,-0.34808 -3.16251,-0.009 -6.27657,0.8298 -9.897,2.66681 -1.20005,0.60891 -2.21281,1.10712 -2.25058,1.10712 -0.0378,0 0.2342,-0.44599 0.60437,-0.99108 0.90139,-1.32735 1.8225,-3.33011 2.25774,-4.90896 0.49279,-1.78762 0.63774,-7.17771 0.25276,-9.3996 -0.54255,-3.13143 -1.92814,-5.88626 -4.10837,-8.16828 -0.66407,-0.69507 -1.13116,-1.26376 -1.03799,-1.26376 0.30565,0 4.91023,1.62598 7.63245,2.69518 4.47988,1.75956 6.79048,3.21659 9.75754,6.15295 3.81544,3.77597 6.12998,7.56978 7.91518,12.97394 1.29695,3.92612 1.66167,5.42477 1.39762,5.74293 -0.5091,0.61343 -0.69026,0.54524 -1.85515,-0.69836 z"
         id="path33"
         transform="scale(0.26458333)" />
      <text
         xml:space="preserve"
         style="font-style:normal;font-variant:normal;font-weight:normal;font-stretch:normal;font-size:2.82222px;font-family:'URW Bookman';-inkscape-font-specification:'URW Bookman, Normal';font-variant-ligatures:normal;font-variant-caps:normal;font-variant-numeric:normal;font-variant-east-asian:normal;fill:#000000;fill-opacity:1;stroke:none;stroke-width:0.127;stroke-dasharray:1.362, 0.227;stroke-dashoffset:0;stroke-opacity:0.424566"
         x="35.830761"
         y="-129.98634"
         id="text34"
         transform="scale(1,-1)"><tspan
           sodipodi:role="line"
           id="tspan34"
           x="35.830761"
           y="-129.98634"
           style="text-align:center;text-anchor:middle">AIRL</tspan></text>
    </g>
    <g
       id="g38"
       transform="matrix(1,0,0,-1,112.07641,288.82803)">
      <rect
         style="fill:#f6d5ff;fill-opacity:1;stroke:#00006d;stroke-width:0.227;stroke-dasharray:1.362, 0.227;stroke-dashoffset:0;stroke-opacity:0.424566"
         id="rect34"
         width="22.280033"
         height="8.6571445"
         x="16.62512"
         y="243.95854"
         ry="3.7413723" />
      <path
         style="fill:none;fill-opacity:1;stroke:#0000cf;stroke-width:0.427;stroke-dasharray:none;stroke-opacity:1;marker-end:url(#marker3)"
         d="m 51.704242,132.14237 c 0.137496,0.19225 0.274985,0.38449 0.476067,1.12785 0.201082,0.74336 0.465714,2.03768 1.007896,3.53622 0.542182,1.49855 1.36184,3.2011 2.48514,4.12868 1.1233,0.92758 2.550116,1.08008 3.97697,1.23258"
         id="path34"
         inkscape:path-effect="#path-effect51"
         inkscape:original-d="m 51.704242,132.14237 c 0,0 0.274986,0.38449 0.412488,0.57675 0.264661,1.29446 0.529292,2.58878 0.793947,3.88321 0.819709,1.70266 1.639365,3.40521 2.459079,5.10787 1.426888,0.15251 2.853705,0.305 4.280559,0.4575"
         sodipodi:nodetypes="ccccc"
         transform="translate(-7.1027051,119.97829)" />
      <path
         style="fill:none;fill-opacity:1;stroke:#0000cf;stroke-width:0.127;stroke-dasharray:none;stroke-opacity:1"
         d="m 44.878796,134.16567 c 0.714248,-0.43069 1.428492,-0.86137 2.058931,-1.13832 0.630438,-0.27696 1.177044,-0.40017 1.629866,-0.46161 0.452822,-0.0614 0.811837,-0.0611 1.167987,0.0581 0.356151,0.11916 0.709416,0.35714 1.025244,0.57407 0.315828,0.21693 0.594196,0.41279 0.863308,0.66525 0.269112,0.25246 0.528947,0.5615 0.788789,0.87055"
         id="path35"
         inkscape:path-effect="#path-effect53"
         inkscape:original-d="m 44.878796,134.16567 c 0.714246,-0.43069 1.428494,-0.86137 2.142739,-1.29206 0.546629,-0.12322 1.093235,-0.24643 1.639851,-0.36964 0.359029,2.6e-4 0.718044,7.9e-4 1.077065,10e-4 0.35328,0.23799 0.706546,0.47597 1.059821,0.71396 0.278378,0.19587 0.556746,0.39173 0.835123,0.58759 0.259847,0.30906 0.519684,0.6181 0.779526,0.92715"
         transform="translate(-7.7075437,117.80943)" />
      <path
         style="fill:none;fill-opacity:1;stroke:#0000cf;stroke-width:0.127;stroke-dasharray:none;stroke-opacity:1"
         d="m 52.58055,134.30872 c -0.28178,-1.08078 -0.563561,-2.16156 -1.092279,-3.14572 -0.528717,-0.98416 -1.30434,-1.87166 -2.01875,-2.46003 -0.71441,-0.58836 -1.367557,-0.87755 -2.069991,-1.153 -0.702434,-0.27546 -1.454086,-0.53717 -2.056085,-0.73378 -0.601999,-0.19661 -1.054262,-0.3281 -1.506539,-0.4596"
         id="path36"
         inkscape:path-effect="#path-effect55"
         inkscape:original-d="m 52.58055,134.30872 c -0.28178,-1.08078 -0.563561,-2.16156 -0.845341,-3.24234 -0.775655,-0.88754 -1.551281,-1.77504 -2.326923,-2.66257 -0.653174,-0.2892 -1.306325,-0.57838 -1.959486,-0.86758 -0.751705,-0.26172 -1.503355,-0.52343 -2.255064,-0.78515 -0.45229,-0.1315 -0.904554,-0.26299 -1.35683,-0.39449"
         sodipodi:nodetypes="cccccc"
         transform="translate(-7.7075437,117.80943)" />
      <path
         style="fill:#ffdbff;fill-opacity:1;stroke:#0000cf;stroke-width:0.0205289;stroke-dasharray:none;stroke-opacity:1"
         d="m 44.192098,251.83358 c -0.49517,-0.52862 -1.557456,-1.2714 -2.10417,-1.4713 -0.195337,-0.0714 -0.348152,-0.091 -0.718556,-0.0921 -0.836747,-0.002 -1.660675,0.21955 -2.618581,0.70559 -0.317513,0.16111 -0.585472,0.29293 -0.595466,0.29293 -0.01,0 0.06197,-0.118 0.159906,-0.26223 0.238493,-0.35119 0.482204,-0.88109 0.597361,-1.29883 0.130384,-0.47297 0.168735,-1.8991 0.06688,-2.48697 -0.14355,-0.82853 -0.510154,-1.55741 -1.087006,-2.16119 -0.175702,-0.18391 -0.299286,-0.33437 -0.274635,-0.33437 0.08087,0 1.299165,0.4302 2.019419,0.7131 1.185301,0.46555 1.796648,0.85105 2.581682,1.62796 1.009502,0.99906 1.621891,2.00284 2.094225,3.43269 0.343151,1.03879 0.43965,1.43531 0.369787,1.51949 -0.134699,0.1623 -0.182631,0.14426 -0.490842,-0.18478 z"
         id="path37" />
      <text
         xml:space="preserve"
         style="font-style:normal;font-variant:normal;font-weight:normal;font-stretch:normal;font-size:2.82222px;font-family:'URW Bookman';-inkscape-font-specification:'URW Bookman, Normal';font-variant-ligatures:normal;font-variant-caps:normal;font-variant-numeric:normal;font-variant-east-asian:normal;fill:#000000;fill-opacity:1;stroke:none;stroke-width:0.127;stroke-dasharray:1.362, 0.227;stroke-dashoffset:0;stroke-opacity:0.424566"
         x="27.773678"
         y="-247.69489"
         id="text38"
         transform="scale(1,-1)"><tspan
           sodipodi:role="line"
           x="27.773678"
           y="-247.69489"
           style="text-align:center;text-anchor:middle"
           id="tspan56">MAIRL</tspan></text>
      <path
         style="fill:#00aa44;fill-opacity:1;stroke:#000000;stroke-width:0.427;stroke-dasharray:none;stroke-dashoffset:0;stroke-opacity:1"
         d="m -51.524023,145.04059 c 0,0.96871 0,1.93742 0,2.90613"
         id="path57"
         inkscape:path-effect="#path-effect57"
         inkscape:original-d="m -51.524023,145.04059 c 0,0.96871 0,1.93742 0,2.90613"
         transform="matrix(1,0,0,0.57452992,-15.446906,178.97075)" />
      <text
         xml:space="preserve"
         style="font-style:normal;font-variant:normal;font-weight:normal;font-stretch:normal;font-size:2.82223px;font-family:'URW Bookman';-inkscape-font-specification:'URW Bookman, Normal';font-variant-ligatures:normal;font-variant-caps:normal;font-variant-numeric:normal;font-variant-east-asian:normal;text-align:center;text-anchor:middle;fill:#0000ff;fill-opacity:1;stroke:none;stroke-width:0.427;stroke-dasharray:none;stroke-dashoffset:0;stroke-opacity:1"
         x="-67.184433"
         y="-264.78946"
         id="text57"
         transform="scale(1,-1)"><tspan
           sodipodi:role="line"
           id="tspan57"
           style="fill:#0000ff;fill-opacity:1;stroke:none;stroke-width:0.427"
           x="-67.184433"
           y="-264.78946">1995</tspan></text>
      <path
         style="fill:#00aa44;fill-opacity:1;stroke:#000000;stroke-width:0.427;stroke-dasharray:none;stroke-dashoffset:0;stroke-opacity:1"
         d="m -51.524023,145.04059 c 0,0.96871 0,1.93742 0,2.90613"
         id="path58"
         inkscape:path-effect="#path-effect59"
         inkscape:original-d="m -51.524023,145.04059 c 0,0.96871 0,1.93742 0,2.90613"
         transform="matrix(1,0,0,0.57452992,3.1893525,177.2078)" />
      <text
         xml:space="preserve"
         style="font-style:normal;font-variant:normal;font-weight:normal;font-stretch:normal;font-size:2.82223px;font-family:'URW Bookman';-inkscape-font-specification:'URW Bookman, Normal';font-variant-ligatures:normal;font-variant-caps:normal;font-variant-numeric:normal;font-variant-east-asian:normal;text-align:center;text-anchor:middle;fill:#0000ff;fill-opacity:1;stroke:none;stroke-width:0.427;stroke-dasharray:none;stroke-dashoffset:0;stroke-opacity:1"
         x="-48.548168"
         y="-257.67056"
         id="text58"
         transform="scale(1,-1)"><tspan
           sodipodi:role="line"
           id="tspan58"
           style="fill:#0000ff;fill-opacity:1;stroke:none;stroke-width:0.427"
           x="-48.548168"
           y="-257.67056">2000</tspan></text>
      <path
         style="fill:#00aa44;fill-opacity:1;stroke:#000000;stroke-width:0.427;stroke-dasharray:none;stroke-dashoffset:0;stroke-opacity:1"
         d="m -51.524023,145.04059 c 0,0.96871 0,1.93742 0,2.90613"
         id="path59"
         inkscape:path-effect="#path-effect61"
         inkscape:original-d="m -51.524023,145.04059 c 0,0.96871 0,1.93742 0,2.90613"
         transform="matrix(1,0,0,0.57452992,49.904061,178.97075)" />
      <text
         xml:space="preserve"
         style="font-style:normal;font-variant:normal;font-weight:normal;font-stretch:normal;font-size:2.82223px;font-family:'URW Bookman';-inkscape-font-specification:'URW Bookman, Normal';font-variant-ligatures:normal;font-variant-caps:normal;font-variant-numeric:normal;font-variant-east-asian:normal;text-align:center;text-anchor:middle;fill:#0000ff;fill-opacity:1;stroke:none;stroke-width:0.427;stroke-dasharray:none;stroke-dashoffset:0;stroke-opacity:1"
         x="-1.9200354"
         y="-264.78946"
         id="text59"
         transform="scale(1,-1)"><tspan
           sodipodi:role="line"
           id="tspan59"
           style="fill:#0000ff;fill-opacity:1;stroke:none;stroke-width:0.427"
           x="-1.9200352"
           y="-264.78946">2016</tspan></text>
      <path
         style="fill:#00aa44;fill-opacity:1;stroke:#000000;stroke-width:0.427;stroke-dasharray:none;stroke-dashoffset:0;stroke-opacity:1"
         d="m -51.524023,145.04059 c 0,0.96871 0,1.93742 0,2.90613"
         id="path63"
         inkscape:path-effect="#path-effect65"
         inkscape:original-d="m -51.524023,145.04059 c 0,0.96871 0,1.93742 0,2.90613"
         transform="matrix(1,0,0,0.57452992,105.98626,177.76395)" />
      <text
         xml:space="preserve"
         style="font-style:normal;font-variant:normal;font-weight:normal;font-stretch:normal;font-size:2.82223px;font-family:'URW Bookman';-inkscape-font-specification:'URW Bookman, Normal';font-variant-ligatures:normal;font-variant-caps:normal;font-variant-numeric:normal;font-variant-east-asian:normal;text-align:center;text-anchor:middle;fill:#0000ff;fill-opacity:1;stroke:none;stroke-width:0.427;stroke-dasharray:none;stroke-dashoffset:0;stroke-opacity:1"
         x="54.668682"
         y="-258.66821"
         id="text63"
         transform="scale(1,-1)"><tspan
           sodipodi:role="line"
           id="tspan63"
           style="fill:#0000ff;fill-opacity:1;stroke:none;stroke-width:0.427"
           x="54.668682"
           y="-258.66821">2018</tspan></text>
      <path
         style="fill:#00aa44;fill-opacity:1;stroke:#000000;stroke-width:0.427;stroke-dasharray:none;stroke-dashoffset:0;stroke-opacity:1"
         d="m -51.524023,145.04059 c 0,0.96871 0,1.93742 0,2.90613"
         id="path67"
         inkscape:path-effect="#path-effect69"
         inkscape:original-d="m -51.524023,145.04059 c 0,0.96871 0,1.93742 0,2.90613"
         transform="matrix(1,0,0,0.57452992,80.927938,179.1063)" />
      <text
         xml:space="preserve"
         style="font-style:normal;font-variant:normal;font-weight:normal;font-stretch:normal;font-size:2.82223px;font-family:'URW Bookman';-inkscape-font-specification:'URW Bookman, Normal';font-variant-ligatures:normal;font-variant-caps:normal;font-variant-numeric:normal;font-variant-east-asian:normal;text-align:center;text-anchor:middle;fill:#0000ff;fill-opacity:1;stroke:none;stroke-width:0.427;stroke-dasharray:none;stroke-dashoffset:0;stroke-opacity:1"
         x="29.183357"
         y="-264.78946"
         id="text67"
         transform="scale(1,-1)"><tspan
           sodipodi:role="line"
           id="tspan67"
           style="fill:#0000ff;fill-opacity:1;stroke:none;stroke-width:0.427"
           x="29.183357"
           y="-264.78946">2017</tspan></text>
    </g>
  </g>
</svg>
