<svg xmlns:inkscape="http://www.inkscape.org/namespaces/inkscape" xmlns:sodipodi="http://sodipodi.sourceforge.net/DTD/sodipodi-0.dtd" xmlns:xlink="http://www.w3.org/1999/xlink" xmlns="http://www.w3.org/2000/svg" xmlns:svg="http://www.w3.org/2000/svg" viewBox="0 0 23.413634 14.897523" version="1.1" id="svg1" inkscape:version="1.3.1 (9b9bdc1480, 2023-11-25, custom)" sodipodi:docname="logo.svg" viewport="0 0 400px 243px">
  <sodipodi:namedview id="namedview1" pagecolor="#ffffff" bordercolor="#000000" borderopacity="0.25" inkscape:showpageshadow="2" inkscape:pageopacity="0.0" inkscape:pagecheckerboard="0" inkscape:deskcolor="#d1d1d1" inkscape:document-units="mm" inkscape:zoom="3.3640324" inkscape:cx="75.504624" inkscape:cy="70.153902" inkscape:window-width="1920" inkscape:window-height="1043" inkscape:window-x="2560" inkscape:window-y="232" inkscape:window-maximized="1" inkscape:current-layer="layer1"/>
  <defs id="defs1">
    <inkscape:path-effect effect="bspline" id="path-effect169" is_visible="true" lpeversion="1.3" weight="33.333333" steps="2" helper_size="0" apply_no_weight="true" apply_with_weight="true" only_selected="false" uniform="false"/>
    <inkscape:path-effect effect="bspline" id="path-effect167" is_visible="true" lpeversion="1.3" weight="33.333333" steps="2" helper_size="0" apply_no_weight="true" apply_with_weight="true" only_selected="false" uniform="false"/>
    <inkscape:path-effect effect="bspline" id="path-effect165" is_visible="true" lpeversion="1.3" weight="33.333333" steps="2" helper_size="0" apply_no_weight="true" apply_with_weight="true" only_selected="false" uniform="false"/>
    <inkscape:path-effect effect="bspline" id="path-effect164" is_visible="true" lpeversion="1.3" weight="33.333333" steps="2" helper_size="0" apply_no_weight="true" apply_with_weight="true" only_selected="false" uniform="false"/>
    <inkscape:path-effect effect="bspline" id="path-effect163" is_visible="true" lpeversion="1.3" weight="33.333333" steps="2" helper_size="0" apply_no_weight="true" apply_with_weight="true" only_selected="false" uniform="false"/>
    <inkscape:path-effect effect="bspline" id="path-effect159" is_visible="true" lpeversion="1.3" weight="33.333333" steps="2" helper_size="0" apply_no_weight="true" apply_with_weight="true" only_selected="false" uniform="false"/>
    <inkscape:path-effect effect="bspline" id="path-effect158" is_visible="true" lpeversion="1.3" weight="33.333333" steps="2" helper_size="0" apply_no_weight="true" apply_with_weight="true" only_selected="false" uniform="false"/>
    <inkscape:path-effect effect="bspline" id="path-effect156" is_visible="true" lpeversion="1.3" weight="33.333333" steps="2" helper_size="0" apply_no_weight="true" apply_with_weight="true" only_selected="false" uniform="false"/>
    <inkscape:path-effect effect="bspline" id="path-effect154" is_visible="true" lpeversion="1.3" weight="33.333333" steps="2" helper_size="0" apply_no_weight="true" apply_with_weight="true" only_selected="false" uniform="false"/>
    <inkscape:path-effect effect="bspline" id="path-effect152" is_visible="true" lpeversion="1.3" weight="33.333333" steps="2" helper_size="0" apply_no_weight="true" apply_with_weight="true" only_selected="false" uniform="false"/>
    <inkscape:path-effect effect="bspline" id="path-effect144" is_visible="true" lpeversion="1.3" weight="33.333333" steps="2" helper_size="0" apply_no_weight="true" apply_with_weight="true" only_selected="false" uniform="false"/>
    <inkscape:path-effect effect="bspline" id="path-effect142" is_visible="true" lpeversion="1.3" weight="33.333333" steps="2" helper_size="0" apply_no_weight="true" apply_with_weight="true" only_selected="false" uniform="false"/>
    <inkscape:path-effect effect="bspline" id="path-effect140" is_visible="true" lpeversion="1.3" weight="33.333333" steps="2" helper_size="0" apply_no_weight="true" apply_with_weight="true" only_selected="false" uniform="false"/>
    <inkscape:path-effect effect="bspline" id="path-effect138" is_visible="true" lpeversion="1.3" weight="33.333333" steps="2" helper_size="0" apply_no_weight="true" apply_with_weight="true" only_selected="false" uniform="false"/>
    <inkscape:path-effect effect="bspline" id="path-effect136" is_visible="true" lpeversion="1.3" weight="33.333333" steps="2" helper_size="0" apply_no_weight="true" apply_with_weight="true" only_selected="false" uniform="false"/>
    <inkscape:path-effect effect="bspline" id="path-effect134" is_visible="true" lpeversion="1.3" weight="33.333333" steps="2" helper_size="0" apply_no_weight="true" apply_with_weight="true" only_selected="false" uniform="false"/>
    <inkscape:path-effect effect="bspline" id="path-effect132" is_visible="true" lpeversion="1.3" weight="33.333333" steps="2" helper_size="0" apply_no_weight="true" apply_with_weight="true" only_selected="false" uniform="false"/>
    <inkscape:path-effect effect="bspline" id="path-effect130" is_visible="true" lpeversion="1.3" weight="33.333333" steps="2" helper_size="0" apply_no_weight="true" apply_with_weight="true" only_selected="false" uniform="false"/>
    <linearGradient id="linearGradient108" inkscape:collect="always">
      <stop style="stop-color:#ffffff;stop-opacity:0.95385188;" offset="0.63946062" id="stop107"/>
      <stop style="stop-color:#ffff00;stop-opacity:1;" offset="1" id="stop108"/>
    </linearGradient>
    <linearGradient id="linearGradient105" inkscape:collect="always">
      <stop style="stop-color:#ffffff;stop-opacity:0.95385188;" offset="0.58508867" id="stop106"/>
      <stop style="stop-color:#ffff00;stop-opacity:1;" offset="1" id="stop105"/>
    </linearGradient>
    <inkscape:path-effect effect="bspline" id="path-effect65" is_visible="true" lpeversion="1.3" weight="33.333333" steps="2" helper_size="0" apply_no_weight="true" apply_with_weight="true" only_selected="false" uniform="false"/>
    <inkscape:path-effect effect="bspline" id="path-effect64" is_visible="true" lpeversion="1.3" weight="33.333333" steps="2" helper_size="0" apply_no_weight="true" apply_with_weight="true" only_selected="false" uniform="false"/>
    <inkscape:path-effect effect="bspline" id="path-effect63" is_visible="true" lpeversion="1.3" weight="33.333333" steps="2" helper_size="0" apply_no_weight="true" apply_with_weight="true" only_selected="false" uniform="false"/>
    <inkscape:path-effect effect="bspline" id="path-effect61" is_visible="true" lpeversion="1.3" weight="33.333333" steps="2" helper_size="0" apply_no_weight="true" apply_with_weight="true" only_selected="false" uniform="false"/>
    <inkscape:path-effect effect="bspline" id="path-effect59" is_visible="true" lpeversion="1.3" weight="33.333333" steps="2" helper_size="0" apply_no_weight="true" apply_with_weight="true" only_selected="false" uniform="false"/>
    <inkscape:path-effect effect="bspline" id="path-effect57" is_visible="true" lpeversion="1.3" weight="33.333333" steps="2" helper_size="0" apply_no_weight="true" apply_with_weight="true" only_selected="false" uniform="false"/>
    <inkscape:path-effect effect="bspline" id="path-effect55" is_visible="true" lpeversion="1.3" weight="33.333333" steps="2" helper_size="0" apply_no_weight="true" apply_with_weight="true" only_selected="false" uniform="false"/>
    <inkscape:path-effect effect="bspline" id="path-effect54" is_visible="true" lpeversion="1.3" weight="33.333333" steps="2" helper_size="0" apply_no_weight="true" apply_with_weight="true" only_selected="false" uniform="false"/>
    <inkscape:path-effect effect="bspline" id="path-effect52" is_visible="true" lpeversion="1.3" weight="33.333333" steps="2" helper_size="0" apply_no_weight="true" apply_with_weight="true" only_selected="false" uniform="false"/>
    <inkscape:path-effect effect="bspline" id="path-effect51" is_visible="true" lpeversion="1.3" weight="33.333333" steps="2" helper_size="0" apply_no_weight="true" apply_with_weight="true" only_selected="false" uniform="false"/>
    <inkscape:path-effect effect="bspline" id="path-effect50" is_visible="true" lpeversion="1.3" weight="33.333333" steps="2" helper_size="0" apply_no_weight="true" apply_with_weight="true" only_selected="false" uniform="false"/>
    <inkscape:path-effect effect="bspline" id="path-effect49" is_visible="true" lpeversion="1.3" weight="33.333333" steps="2" helper_size="0" apply_no_weight="true" apply_with_weight="true" only_selected="false" uniform="false"/>
    <inkscape:path-effect effect="bspline" id="path-effect48" is_visible="true" lpeversion="1.3" weight="33.333333" steps="2" helper_size="0" apply_no_weight="true" apply_with_weight="true" only_selected="false" uniform="false"/>
    <inkscape:path-effect effect="bspline" id="path-effect45" is_visible="true" lpeversion="1.3" weight="33.333333" steps="2" helper_size="0" apply_no_weight="true" apply_with_weight="true" only_selected="false" uniform="false"/>
    <linearGradient id="linearGradient41" inkscape:collect="always">
      <stop style="stop-color:#ffffff;stop-opacity:1;" offset="0" id="stop41"/>
      <stop style="stop-color:#ffffff;stop-opacity:0;" offset="1" id="stop42"/>
    </linearGradient>
    <linearGradient id="swatch7">
      <stop style="stop-color:#ff0000;stop-opacity:1;" offset="0" id="stop8"/>
    </linearGradient>
    <linearGradient id="swatch6" inkscape:swatch="solid">
      <stop style="stop-color:#ff0000;stop-opacity:1;" offset="0" id="stop7"/>
    </linearGradient>
    <inkscape:path-effect effect="bspline" id="path-effect40" is_visible="true" lpeversion="1.3" weight="33.333333" steps="2" helper_size="0" apply_no_weight="true" apply_with_weight="true" only_selected="false" uniform="false"/>
    <inkscape:path-effect effect="bspline" id="path-effect39" is_visible="true" lpeversion="1.3" weight="33.333333" steps="2" helper_size="0" apply_no_weight="true" apply_with_weight="true" only_selected="false" uniform="false"/>
    <inkscape:path-effect effect="bspline" id="path-effect38" is_visible="true" lpeversion="1.3" weight="33.333333" steps="2" helper_size="0" apply_no_weight="true" apply_with_weight="true" only_selected="false" uniform="false"/>
    <inkscape:path-effect effect="bspline" id="path-effect37" is_visible="true" lpeversion="1.3" weight="33.333333" steps="2" helper_size="0" apply_no_weight="true" apply_with_weight="true" only_selected="false" uniform="false"/>
    <inkscape:path-effect effect="bspline" id="path-effect36" is_visible="true" lpeversion="1.3" weight="33.333333" steps="2" helper_size="0" apply_no_weight="true" apply_with_weight="true" only_selected="false" uniform="false"/>
    <inkscape:path-effect effect="bspline" id="path-effect35" is_visible="true" lpeversion="1.3" weight="33.333333" steps="2" helper_size="0" apply_no_weight="true" apply_with_weight="true" only_selected="false" uniform="false"/>
    <inkscape:path-effect effect="bspline" id="path-effect34" is_visible="true" lpeversion="1.3" weight="33.333333" steps="2" helper_size="0" apply_no_weight="true" apply_with_weight="true" only_selected="false" uniform="false"/>
    <inkscape:path-effect effect="bspline" id="path-effect33" is_visible="true" lpeversion="1.3" weight="33.333333" steps="2" helper_size="0" apply_no_weight="true" apply_with_weight="true" only_selected="false" uniform="false"/>
    <inkscape:path-effect effect="bspline" id="path-effect32" is_visible="true" lpeversion="1.3" weight="33.333333" steps="2" helper_size="0" apply_no_weight="true" apply_with_weight="true" only_selected="false" uniform="false"/>
    <inkscape:path-effect effect="bspline" id="path-effect31" is_visible="true" lpeversion="1.3" weight="33.333333" steps="2" helper_size="0" apply_no_weight="true" apply_with_weight="true" only_selected="false" uniform="false"/>
    <inkscape:path-effect effect="bspline" id="path-effect30" is_visible="true" lpeversion="1.3" weight="33.333333" steps="2" helper_size="0" apply_no_weight="true" apply_with_weight="true" only_selected="false" uniform="false"/>
    <inkscape:path-effect effect="bspline" id="path-effect29" is_visible="true" lpeversion="1.3" weight="33.333333" steps="2" helper_size="0" apply_no_weight="true" apply_with_weight="true" only_selected="false" uniform="false"/>
    <inkscape:path-effect effect="bspline" id="path-effect28" is_visible="true" lpeversion="1.3" weight="33.333333" steps="2" helper_size="0" apply_no_weight="true" apply_with_weight="true" only_selected="false" uniform="false"/>
    <inkscape:path-effect effect="bspline" id="path-effect27" is_visible="true" lpeversion="1.3" weight="33.333333" steps="2" helper_size="0" apply_no_weight="true" apply_with_weight="true" only_selected="false" uniform="false"/>
    <inkscape:path-effect effect="bspline" id="path-effect26" is_visible="true" lpeversion="1.3" weight="33.333333" steps="2" helper_size="0" apply_no_weight="true" apply_with_weight="true" only_selected="false" uniform="false"/>
    <inkscape:path-effect effect="bspline" id="path-effect25" is_visible="true" lpeversion="1.3" weight="33.333333" steps="2" helper_size="0" apply_no_weight="true" apply_with_weight="true" only_selected="false" uniform="false"/>
    <inkscape:path-effect effect="bspline" id="path-effect24" is_visible="true" lpeversion="1.3" weight="33.333333" steps="2" helper_size="0" apply_no_weight="true" apply_with_weight="true" only_selected="false" uniform="false"/>
    <inkscape:path-effect effect="bspline" id="path-effect23" is_visible="true" lpeversion="1.3" weight="33.333333" steps="2" helper_size="0" apply_no_weight="true" apply_with_weight="true" only_selected="false" uniform="false"/>
    <inkscape:path-effect effect="bspline" id="path-effect10" is_visible="true" lpeversion="1.3" weight="33.333333" steps="2" helper_size="0" apply_no_weight="true" apply_with_weight="true" only_selected="false" uniform="false"/>
    <inkscape:path-effect effect="bspline" id="path-effect8" is_visible="true" lpeversion="1.3" weight="33.333333" steps="2" helper_size="0" apply_no_weight="true" apply_with_weight="true" only_selected="false" uniform="false"/>
    <inkscape:path-effect effect="bspline" id="path-effect6" is_visible="true" lpeversion="1.3" weight="33.333333" steps="2" helper_size="0" apply_no_weight="true" apply_with_weight="true" only_selected="false" uniform="false"/>
    <inkscape:path-effect effect="bspline" id="path-effect4" is_visible="true" lpeversion="1.3" weight="33.333333" steps="2" helper_size="0" apply_no_weight="true" apply_with_weight="true" only_selected="false" uniform="false"/>
    <radialGradient inkscape:collect="always" xlink:href="#linearGradient41" id="radialGradient42" cx="136.95233" cy="104.52916" fx="136.95233" fy="104.52916" r="2.9307156" gradientTransform="matrix(3.3606925,-8.9239295e-8,-7.5286978e-8,2.6056575,-290.36249,-133.45667)" gradientUnits="userSpaceOnUse"/>
    <radialGradient inkscape:collect="always" xlink:href="#linearGradient105" id="radialGradient106" cx="205.78271" cy="48.43943" fx="205.78271" fy="48.43943" r="0.59853387" gradientTransform="matrix(1.1620711,0,0,5.2945422,-36.614878,-209.60203)" gradientUnits="userSpaceOnUse"/>
    <radialGradient inkscape:collect="always" xlink:href="#linearGradient108" id="radialGradient107" gradientUnits="userSpaceOnUse" gradientTransform="matrix(2.3321941,-1.6310915e-8,0,4.7250125,-273.44646,-257.86993)" cx="205.78271" cy="48.43943" fx="205.78271" fy="48.43943" r="0.59853387"/>
    <radialGradient inkscape:collect="always" xlink:href="#linearGradient108" id="radialGradient189" gradientUnits="userSpaceOnUse" gradientTransform="matrix(2.8523046,1.7296493e-8,2.670335e-8,5.2866156,-772.00376,-142.32888)" cx="205.78271" cy="48.43943" fx="205.78271" fy="48.43943" r="0.59853387"/>
  </defs>
  <g inkscape:label="Layer 1" inkscape:groupmode="layer" id="layer1" transform="translate(-158.17706,-22.705468)">
    <g id="g2" transform="matrix(0.40525585,0,0,0.40525585,94.713052,17.75158)">
      <ellipse style="fill:#00ffff;fill-opacity:1;stroke:#000000;stroke-width:0.306448;stroke-miterlimit:0.6;stroke-dasharray:none;stroke-opacity:1" id="path1" transform="matrix(0.9795777,-0.20106597,0.16394492,0.98646949,0,0)" cy="74.582886" cx="163.36981" ry="7.5578771" rx="15.777967"/>
      <g id="g1" transform="matrix(1.3800924,0,0,1.3800924,-78.672367,-18.559195)">
        <g id="g100" transform="matrix(0.42954079,0,0,0.42954079,101.22255,-18.58328)" style="opacity:0.924674">
          <path sodipodi:type="star" style="fill:#808080;stroke:#000000;stroke-width:1.90424;stroke-dasharray:none" id="path93" inkscape:flatsided="true" sodipodi:sides="6" sodipodi:cx="207.75938" sodipodi:cy="53.639446" sodipodi:r1="4.4205008" sodipodi:r2="3.8282659" sodipodi:arg1="0.52359878" sodipodi:arg2="1.0471976" inkscape:rounded="0" inkscape:randomized="0" d="m 211.58765,55.849697 -3.82827,2.21025 -3.82826,-2.21025 0,-4.420501 3.82826,-2.21025 3.82827,2.21025 z" transform="matrix(0.12411392,0,0,0.12411392,139.92763,135.4565)"/>
          <path sodipodi:type="star" style="fill:#808080;stroke:#000000;stroke-width:1.90424;stroke-dasharray:none" id="path209" inkscape:flatsided="true" sodipodi:sides="6" sodipodi:cx="207.75938" sodipodi:cy="53.639446" sodipodi:r1="4.4205008" sodipodi:r2="3.8282659" sodipodi:arg1="0.52359878" sodipodi:arg2="1.0471976" inkscape:rounded="0" inkscape:randomized="0" d="m 211.58765,55.849697 -3.82827,2.21025 -3.82826,-2.21025 0,-4.420501 3.82826,-2.21025 3.82827,2.21025 z" transform="matrix(0.12411392,0,0,0.12411392,138.1477,138.16386)"/>
          <path sodipodi:type="star" style="fill:#808080;stroke:#000000;stroke-width:1.90424;stroke-dasharray:none" id="path210" inkscape:flatsided="true" sodipodi:sides="6" sodipodi:cx="207.75938" sodipodi:cy="53.639446" sodipodi:r1="4.4205008" sodipodi:r2="3.8282659" sodipodi:arg1="0.52359878" sodipodi:arg2="1.0471976" inkscape:rounded="0" inkscape:randomized="0" d="m 211.58765,55.849697 -3.82827,2.21025 -3.82826,-2.21025 0,-4.420501 3.82826,-2.21025 3.82827,2.21025 z" transform="matrix(0.12411392,0,0,0.12411392,137.55439,141.16897)"/>
          <path sodipodi:type="star" style="fill:#808080;stroke:#000000;stroke-width:1.90424;stroke-dasharray:none" id="path211" inkscape:flatsided="true" sodipodi:sides="6" sodipodi:cx="207.75938" sodipodi:cy="53.639446" sodipodi:r1="4.4205008" sodipodi:r2="3.8282659" sodipodi:arg1="0.52359878" sodipodi:arg2="1.0471976" inkscape:rounded="0" inkscape:randomized="0" d="m 211.58765,55.849697 -3.82827,2.21025 -3.82826,-2.21025 0,-4.420501 3.82826,-2.21025 3.82827,2.21025 z" transform="matrix(0.12411392,0,0,0.12411392,138.74101,144.17408)"/>
          <path sodipodi:type="star" style="fill:#808080;stroke:#000000;stroke-width:1.90424;stroke-dasharray:none" id="path212" inkscape:flatsided="true" sodipodi:sides="6" sodipodi:cx="207.75938" sodipodi:cy="53.639446" sodipodi:r1="4.4205008" sodipodi:r2="3.8282659" sodipodi:arg1="0.52359878" sodipodi:arg2="1.0471976" inkscape:rounded="0" inkscape:randomized="0" d="m 211.58765,55.849697 -3.82827,2.21025 -3.82826,-2.21025 0,-4.420501 3.82826,-2.21025 3.82827,2.21025 z" transform="matrix(0.12411392,0,0,0.12411392,141.11425,145.86422)"/>
          <path sodipodi:type="star" style="fill:#808080;stroke:#000000;stroke-width:1.90424;stroke-dasharray:none" id="path213" inkscape:flatsided="true" sodipodi:sides="6" sodipodi:cx="207.75938" sodipodi:cy="53.639446" sodipodi:r1="4.4205008" sodipodi:r2="3.8282659" sodipodi:arg1="0.52359878" sodipodi:arg2="1.0471976" inkscape:rounded="0" inkscape:randomized="0" d="m 211.58765,55.849697 -3.82827,2.21025 -3.82826,-2.21025 0,-4.420501 3.82826,-2.21025 3.82827,2.21025 z" transform="matrix(0.12411392,0,0,0.12411392,143.63989,147.23442)"/>
          <path sodipodi:type="star" style="fill:#808080;stroke:#000000;stroke-width:1.90424;stroke-dasharray:none" id="path214" inkscape:flatsided="true" sodipodi:sides="6" sodipodi:cx="207.75938" sodipodi:cy="53.639446" sodipodi:r1="4.4205008" sodipodi:r2="3.8282659" sodipodi:arg1="0.52359878" sodipodi:arg2="1.0471976" inkscape:rounded="0" inkscape:randomized="0" d="m 211.58765,55.849697 -3.82827,2.21025 -3.82826,-2.21025 0,-4.420501 3.82826,-2.21025 3.82827,2.21025 z" transform="matrix(0.12411392,0,0,0.12411392,141.70756,133.45552)"/>
          <path sodipodi:type="star" style="fill:#808080;stroke:#000000;stroke-width:1.90424;stroke-dasharray:none" id="path215" inkscape:flatsided="true" sodipodi:sides="6" sodipodi:cx="207.75938" sodipodi:cy="53.639446" sodipodi:r1="4.4205008" sodipodi:r2="3.8282659" sodipodi:arg1="0.52359878" sodipodi:arg2="1.0471976" inkscape:rounded="0" inkscape:randomized="0" d="m 211.58765,55.849697 -3.82827,2.21025 -3.82826,-2.21025 0,-4.420501 3.82826,-2.21025 3.82827,2.21025 z" transform="matrix(0.12411392,0,0,0.12411392,144.2332,131.6465)"/>
          <path sodipodi:type="star" style="fill:#808080;stroke:#000000;stroke-width:1.90424;stroke-dasharray:none" id="path216" inkscape:flatsided="true" sodipodi:sides="6" sodipodi:cx="207.75938" sodipodi:cy="53.639446" sodipodi:r1="4.4205008" sodipodi:r2="3.8282659" sodipodi:arg1="0.52359878" sodipodi:arg2="1.0471976" inkscape:rounded="0" inkscape:randomized="0" d="m 211.58765,55.849697 -3.82827,2.21025 -3.82826,-2.21025 0,-4.420501 3.82826,-2.21025 3.82827,2.21025 z" transform="matrix(0.12411392,0,0,0.12411392,146.81052,129.98857)"/>
        </g>
      </g>
      <ellipse style="fill:none;fill-opacity:1;stroke:#808080;stroke-width:0.254435;stroke-miterlimit:0.6;stroke-dasharray:none;stroke-opacity:1" id="ellipse208" transform="matrix(0.9795777,-0.20106597,0.16394492,0.98646949,0,0)" cy="74.582886" cx="163.36981" ry="6.2750921" rx="13.100002"/>
      <ellipse style="fill:#00ffff;fill-opacity:1;stroke:#000000;stroke-width:0.167756;stroke-miterlimit:0.6;stroke-dasharray:none;stroke-opacity:1" id="ellipse1" cx="170.59787" cy="45.11272" rx="6.2932453" ry="5.2908273" transform="matrix(0.99563677,-0.09331362,0.04610401,0.99893664,0,0)"/>
      <ellipse style="fill:#00ffff;stroke:#000000;stroke-width:0.184211;stroke-miterlimit:0.6;stroke-dasharray:none;stroke-opacity:1" id="ellipse10" cx="165.79237" cy="134.41475" rx="7.7052751" ry="5.2106466" transform="matrix(0.8522781,-0.52308894,0.29653037,0.95502342,0,0)"/>
      <path style="fill:url(#radialGradient42);fill-opacity:1;stroke:none;stroke-width:0.340622;stroke-miterlimit:0.6;stroke-dasharray:none;stroke-opacity:1" id="path41" sodipodi:type="arc" sodipodi:cx="169.89224" sodipodi:cy="138.91055" sodipodi:rx="9.7069731" sodipodi:ry="7.4325404" sodipodi:start="0" sodipodi:end="6.268788" sodipodi:arc-type="arc" d="m 179.59922,138.91055 a 9.7069731,7.4325404 0 0 1 -9.67204,7.4325 9.7069731,7.4325404 0 0 1 -9.74166,-7.37899 9.7069731,7.4325404 0 0 1 9.60191,-7.48561 9.7069731,7.4325404 0 0 1 9.81078,7.3251" sodipodi:open="true" transform="matrix(0.83330076,-0.5528199,0.28498865,0.95853089,0,0)"/>
      <ellipse style="fill:#ffd5d5;fill-opacity:1;stroke:#000000;stroke-width:0.170114;stroke-miterlimit:0.6;stroke-dasharray:none;stroke-opacity:1" id="path42" cx="68.873695" cy="-151.74672" rx="1.3830973" ry="1.0372168" transform="matrix(0.3974553,0.91762154,-0.9709587,0.23924717,0,0)"/>
      <g id="g46">
        <g id="g52">
          <g id="g57">
            <g id="g101" transform="translate(0.81463872,8.1207841)"/>
          </g>
        </g>
      </g>
      <g id="g112">
        <g id="g102" transform="translate(-0.57769031,-3.4439544)">
          <g id="g108" transform="translate(-0.30214574,-10.523549)"/>
        </g>
      </g>
      <g id="g189" transform="matrix(1.3800924,0,0,1.3800924,-82.283263,-18.023226)">
        <g id="g129" transform="matrix(1.0449442,-0.01011517,0.01035141,1.0210963,-3.0454587,4.5333229)" style="fill:#e6e6e6">
          <path style="fill:#e6e6e6;fill-opacity:1;stroke:#666666;stroke-width:0.267043;stroke-miterlimit:0.6;stroke-dasharray:none;stroke-opacity:1" d="m 197.29301,33.306653 -0.15037,-7.950269 5.99739,3.065486 v 7.719969 z" id="path112" sodipodi:nodetypes="ccccc"/>
        </g>
        <path style="fill:#ffff00;fill-opacity:1;stroke:#1a1a1a;stroke-width:0.00842633;stroke-miterlimit:0.6;stroke-dasharray:none;stroke-opacity:1" d="m 293.69515,132.72971 c -3.08567,-0.90631 -5.37051,-2.01954 -11.63038,-5.66662 -2.76342,-1.61 -3.71441,-2.37291 -4.03885,-3.24006 -0.0834,-0.22298 -0.40437,-1.34452 -0.7132,-2.49231 l -0.56152,-2.08688 0.004,-12.76595 0.004,-12.76595 0.36767,1.337681 c 0.20223,0.735724 0.48477,1.576612 0.62788,1.868639 0.46024,0.939132 1.17306,1.481077 4.45866,3.38984 6.1858,3.59362 8.72304,4.79627 11.87606,5.62921 l 0.64611,0.17069 v 13.43986 c 0,10.70421 -0.0189,13.43915 -0.0929,13.43637 -0.0511,-0.002 -0.47748,-0.11646 -0.94753,-0.25452 z" id="path181" transform="matrix(0.26458333,0,0,0.26458333,130.1294,4.536855)"/>
        <path style="fill:#e6e6e6;fill-opacity:1;stroke:#666666;stroke-width:0.267043;stroke-miterlimit:0.6;stroke-dasharray:none;stroke-opacity:1" d="m 197.29301,33.306653 -0.15037,-7.950269 5.99739,3.065486 v 7.719969 z" id="path43" sodipodi:nodetypes="ccccc"/>
        <path style="fill:none;fill-opacity:1;stroke:#000000;stroke-width:0.0752398;stroke-miterlimit:0.6;stroke-dasharray:none;stroke-opacity:1" d="m 197.96719,26.30275 c -0.0553,0.05894 -0.11065,0.117892 -0.16597,0.176837 -0.04,0.04261 -0.08,0.08522 -0.11998,0.127833 -0.0532,0.05664 -0.10632,0.113284 -0.15948,0.169926 -0.074,0.07881 -0.14795,0.157629 -0.22192,0.236443 -0.088,0.09376 -0.176,0.187519 -0.264,0.281278" id="path46" sodipodi:nodetypes="cssssc"/>
        <path style="fill:none;fill-opacity:1;stroke:#000000;stroke-width:0.1;stroke-miterlimit:0.6;stroke-dasharray:none;stroke-opacity:1" d="m 203.15728,28.863705 c -0.23369,0.06262 -0.46739,0.125236 -0.70576,0.156545 -0.23837,0.03131 -0.48142,0.03131 -0.70654,0.0036 -0.22512,-0.02776 -0.43232,-0.08328 -0.76176,-0.171552 -0.32944,-0.08827 -0.78111,-0.209298 -1.2469,-0.408348 -0.46579,-0.199051 -0.94568,-0.476115 -1.36346,-0.717322 -0.41779,-0.241208 -0.77344,-0.446543 -1.12911,-0.651888" id="path48" inkscape:path-effect="#path-effect49" inkscape:original-d="m 203.15728,28.863705 c -0.23369,0.06262 -0.46739,0.125235 -0.70108,0.187853 -0.24305,0 -0.4861,0 -0.72915,0 -0.20719,-0.05552 -0.41439,-0.111035 -0.62158,-0.166553 -0.45169,-0.121029 -0.90336,-0.242054 -1.35503,-0.36308 -0.47991,-0.277074 -0.9598,-0.554137 -1.43969,-0.831205 -0.35568,-0.205348 -0.71133,-0.410687 -1.067,-0.61603"/>
        <path style="fill:none;fill-opacity:1;stroke:#000000;stroke-width:0.1;stroke-miterlimit:0.6;stroke-dasharray:none;stroke-opacity:1" d="m 203.15728,28.863705 c -0.41032,0 -0.82063,0 -1.26817,-0.06495 -0.44754,-0.06495 -0.9323,-0.194838 -1.39499,-0.38698 -0.46269,-0.192142 -0.90329,-0.446522 -1.26478,-0.655231 -0.3615,-0.208709 -0.64386,-0.37173 -0.91448,-0.527972 -0.27062,-0.156243 -0.52948,-0.305696 -0.78834,-0.45515" id="path49" inkscape:path-effect="#path-effect50" inkscape:original-d="m 203.15728,28.863705 c -0.41032,0 -0.82063,0 -1.23094,0 -0.48477,-0.129895 -0.96953,-0.259784 -1.45429,-0.389677 -0.44062,-0.254391 -0.88122,-0.508772 -1.32183,-0.763159 -0.28238,-0.163028 -0.56474,-0.326049 -0.8471,-0.489073 -0.25888,-0.14946 -0.51774,-0.298914 -0.7766,-0.448371"/>
        <path style="fill:none;fill-opacity:1;stroke:#000000;stroke-width:0.1;stroke-miterlimit:0.6;stroke-dasharray:none;stroke-opacity:1" d="m 203.15728,28.863705 c -0.4593,-0.12307 -0.9186,-0.246139 -1.41241,-0.403816 -0.4938,-0.157677 -1.02209,-0.349953 -1.44357,-0.536929 -0.42148,-0.186975 -0.73614,-0.368645 -1.05245,-0.55127 -0.31632,-0.182625 -0.63427,-0.366194 -0.88142,-0.508886 -0.24715,-0.142691 -0.42347,-0.24449 -0.5998,-0.346293" id="path50" inkscape:path-effect="#path-effect51" inkscape:original-d="m 203.15728,28.863705 c -0.4593,-0.12307 -0.9186,-0.246139 -1.3779,-0.369209 -0.52831,-0.192284 -1.0566,-0.38456 -1.5849,-0.57684 -0.31466,-0.181673 -0.62932,-0.363338 -0.94397,-0.545007 -0.31798,-0.183581 -0.63593,-0.367155 -0.9539,-0.550732 -0.17633,-0.101804 -0.35265,-0.203604 -0.52898,-0.305406"/>
        <path style="fill:none;fill-opacity:1;stroke:#000000;stroke-width:0.1;stroke-miterlimit:0.6;stroke-dasharray:none;stroke-opacity:1" d="m 203.15728,28.863705 c -0.42877,-0.161589 -0.85753,-0.323175 -1.2863,-0.484763 0,0 -0.86382,-0.354805 -0.86382,-0.354805 0,0 -1.22247,-0.703324 -1.22247,-0.703324 0,0 -0.86432,-0.498456 -0.86432,-0.498456 0,0 -0.6012,-0.322214 -0.6012,-0.322214 0,0 -0.34937,-0.199014 -0.34937,-0.199014" id="path51" inkscape:path-effect="#path-effect52" inkscape:original-d="m 203.15728,28.863705 c -0.42877,-0.161588 -1.2863,-0.484763 -1.2863,-0.484763 0,0 -0.86382,-0.354805 -0.86382,-0.354805 0,0 -1.22247,-0.703324 -1.22247,-0.703324 0,0 -0.86432,-0.498456 -0.86432,-0.498456 0,0 -0.6012,-0.322214 -0.6012,-0.322214 0,0 -0.34937,-0.199014 -0.34937,-0.199014"/>
        <path style="fill:#ffffff;fill-opacity:1;stroke:none;stroke-width:0.0397221;stroke-miterlimit:0.6;stroke-dasharray:none;stroke-opacity:1" d="m 264.8472,113.44979 c -10.26746,-4.9884 -10.35274,-5.03239 -10.42262,-5.3769 -0.0827,-0.40784 -0.45217,-20.984469 -0.37809,-21.058546 0.0276,-0.02765 1.28369,0.658207 2.79121,1.524118 3.30086,1.896004 4.3491,2.429042 6.27538,3.191076 3.23544,1.27994 7.0504,2.097681 8.90681,1.909185 0.88103,-0.08946 2.07787,-0.41344 2.70927,-0.733396 0.28367,-0.143747 0.54098,-0.261357 0.5718,-0.261357 0.0308,0 0.0561,5.81718 0.0561,12.92707 0,7.10988 -0.0355,12.92284 -0.0788,12.91768 -0.0434,-0.005 -4.73729,-2.27268 -10.43098,-5.03893 z" id="path101" transform="matrix(0.26458333,0,0,0.26458333,130.1294,4.536855)"/>
        <g id="g103" transform="translate(-0.75281008,-8.1852496)">
          <g id="g94" transform="translate(0.81463979,8.1207842)">
            <path style="fill:none;fill-opacity:1;stroke:#000000;stroke-width:0.1;stroke-miterlimit:0.6;stroke-dasharray:none;stroke-opacity:1" d="m 203.15728,28.863705 c -0.34558,0.199519 -0.69115,0.399035 -1.27053,0.389849 -0.57938,-0.0092 -1.39252,-0.227067 -2.0266,-0.467355 -0.63408,-0.240288 -1.08905,-0.502965 -1.52842,-0.756635 -0.43937,-0.25367 -0.86311,-0.498317 -1.28686,-0.742969" id="path45" inkscape:path-effect="#path-effect45" inkscape:original-d="m 203.15728,28.863705 c -0.34558,0.199518 -0.69115,0.399036 -1.03673,0.598554 -0.81318,-0.217891 -1.62632,-0.435773 -2.43949,-0.65366 -0.45499,-0.262689 -0.90996,-0.525368 -1.36495,-0.788052 -0.42375,-0.244653 -0.84749,-0.4893 -1.27124,-0.733952" sodipodi:nodetypes="cccsc"/>
            <path style="fill:none;fill-opacity:1;stroke:#000000;stroke-width:0.1;stroke-miterlimit:0.6;stroke-dasharray:none;stroke-opacity:1" d="m 203.15728,28.863705 c -0.34558,0.199519 -0.69115,0.399035 -1.27053,0.389849 -0.57938,-0.0092 -1.39252,-0.227067 -2.0266,-0.467355 -0.63408,-0.240288 -1.08905,-0.502965 -1.52842,-0.756635 -0.43937,-0.25367 -0.86311,-0.498317 -1.28686,-0.742969" id="path52" inkscape:path-effect="#path-effect54" inkscape:original-d="m 203.15728,28.863705 c -0.34558,0.199518 -0.69115,0.399036 -1.03673,0.598554 -0.81318,-0.217891 -1.62632,-0.435773 -2.43949,-0.65366 -0.45499,-0.262689 -0.90996,-0.525368 -1.36495,-0.788052 -0.42375,-0.244653 -0.84749,-0.4893 -1.27124,-0.733952" sodipodi:nodetypes="cccsc" transform="translate(0,7.293098)"/>
            <path style="fill:none;fill-opacity:1;stroke:#000000;stroke-width:0.1;stroke-miterlimit:0.6;stroke-dasharray:none;stroke-opacity:1" d="m 197.04487,27.286595 c 0,2.431032 0,4.862066 0,7.293098" id="path54" inkscape:path-effect="#path-effect55" inkscape:original-d="m 197.04487,27.286595 c 0,2.431032 0,4.862066 0,7.293098" sodipodi:nodetypes="cc"/>
            <path style="fill:none;fill-opacity:1;stroke:#000000;stroke-width:0.1;stroke-miterlimit:0.6;stroke-dasharray:none;stroke-opacity:1" d="m 197.04487,27.286595 c 0,2.431032 0,4.862066 0,7.293098" id="path55" inkscape:path-effect="#path-effect57" inkscape:original-d="m 197.04487,27.286595 c 0,2.431032 0,4.862066 0,7.293098" sodipodi:nodetypes="cc" transform="translate(6.09516,1.562146)"/>
          </g>
          <path style="fill:#ffff00;fill-opacity:1;stroke:none;stroke-width:0.0107553;stroke-miterlimit:0.6;stroke-dasharray:none;stroke-opacity:1" d="m 202.41528,44.574578 c -0.2321,-0.03055 -0.71358,-0.139823 -1.00423,-0.227912 -0.85429,-0.258914 -1.32735,-0.48225 -2.62424,-1.238934 l -0.85522,-0.498988 0.006,-1.046837 c 0.004,-0.730718 0.0104,-0.915218 0.0211,-0.610975 0.0139,0.386403 0.0221,0.442104 0.0721,0.490881 0.0312,0.03026 1.35345,0.690717 2.93854,1.467683 l 2.88194,1.412664 -0.19457,0.09164 c -0.27914,0.13148 -0.52345,0.181259 -0.86493,0.176231 -0.16029,-0.0025 -0.32963,-0.0093 -0.37631,-0.01544 z" id="path100"/>
          <path style="fill:#ffff00;fill-opacity:1;stroke:none;stroke-width:0.0397221;stroke-miterlimit:0.6;stroke-dasharray:none;stroke-opacity:1" d="m 271.67857,147.15325 c -3.61274,-1.7518 -8.48852,-4.13197 -10.83505,-5.28928 -4.83211,-2.38319 -4.40417,-2.04365 -4.40417,-3.49445 0,-0.38584 -0.0475,-0.74906 -0.10562,-0.80715 -0.0697,-0.0697 -0.0965,-3.56196 -0.0788,-10.26289 l 0.0268,-10.15726 2.73255,1.57581 c 4.6986,2.70958 6.13815,3.41255 8.78294,4.28895 3.07693,1.01958 5.84508,1.49164 7.5321,1.28447 0.97245,-0.11942 2.3668,-0.55774 3.04253,-0.95642 0.19819,-0.11694 0.38128,-0.21261 0.40688,-0.21261 0.0256,0 0.0465,6.0697 0.0465,13.48823 v 13.48824 l -0.26769,0.12197 c -0.14723,0.0671 -0.27728,0.12095 -0.28902,0.11971 -0.0117,-0.001 -2.97721,-1.43553 -6.58996,-3.18732 z" id="path102" transform="matrix(0.26458333,0,0,0.26458333,130.1294,4.536855)"/>
        </g>
        <rect style="fill:url(#radialGradient106);stroke:#ffff00;stroke-width:0.0703845;stroke-miterlimit:0.6;stroke-dasharray:none;stroke-opacity:1" id="rect105" width="1.3056952" height="6.2799044" x="201.86644" y="43.722649" transform="translate(-0.87983654,-13.967504)"/>
        <rect style="fill:url(#radialGradient107);stroke:#ffff00;stroke-width:0.0941956;stroke-miterlimit:0.6;stroke-dasharray:none;stroke-opacity:1" id="rect106" width="2.6204379" height="5.6043806" x="205.16862" y="-31.7952" transform="matrix(0.93318473,0.35939709,-0.2519353,0.96774407,-0.87983654,-13.967504)"/>
        <rect style="fill:url(#radialGradient189);stroke:#ffff00;stroke-width:0.110187;stroke-miterlimit:0.6;stroke-dasharray:none;stroke-opacity:1" id="rect189" width="3.2048306" height="6.2705021" x="-186.65112" y="110.61653" transform="matrix(-0.94527949,0.32626168,0.27895754,0.96030344,-0.87983654,-13.967504)"/>
        <g id="g151" transform="translate(15.137509,-11.589627)">
          <g id="g150" transform="translate(-0.79734254,-1.0302809)">
            <g id="g148" transform="translate(0.81463979,8.1207842)">
              <path style="fill:#cccccc;fill-opacity:1;stroke:#1a1a1a;stroke-width:0.1;stroke-miterlimit:0.6;stroke-dasharray:none;stroke-opacity:1" d="m 188.00247,33.362829 -5.18748,-2.562576" id="path162"/>
              <g id="g172" transform="translate(-0.60147573,-0.11349648)">
                <path style="fill:none;fill-opacity:1;stroke:#000000;stroke-width:0.1;stroke-miterlimit:0.6;stroke-dasharray:none;stroke-opacity:1" d="m 197.04487,27.286595 c 0,2.431032 0,4.862066 0,7.293098" id="path147" inkscape:path-effect="#path-effect156" inkscape:original-d="m 197.04487,27.286595 c 0,2.431032 0,4.862066 0,7.293098" sodipodi:nodetypes="cc" transform="translate(-8.304091,6.1814123)"/>
                <path style="fill:none;fill-opacity:1;stroke:#000000;stroke-width:0.1;stroke-miterlimit:0.6;stroke-dasharray:none;stroke-opacity:1" d="m 197.04487,27.286595 c 0,2.431032 0,4.862066 0,7.293098" id="path148" inkscape:path-effect="#path-effect158" inkscape:original-d="m 197.04487,27.286595 c 0,2.431032 0,4.862066 0,7.293098" sodipodi:nodetypes="cc" transform="matrix(-1,0,0,1,391.7134,9.0681868)"/>
                <path style="fill:none;fill-opacity:1;stroke:#1a1a1a;stroke-width:0.1;stroke-miterlimit:0.6;stroke-dasharray:none;stroke-opacity:1" d="m 188.74077,33.468007 c 0.0931,0.34734 0.18614,0.694665 0.25388,0.947472 0.0677,0.252806 0.11015,0.411081 0.30804,0.592236 0.1979,0.181155 0.55127,0.385173 1.08774,0.694905 0.53647,0.309731 1.25601,0.725158 1.8232,0.988452 0.5672,0.263295 0.98201,0.374443 1.39684,0.485596" id="path159" inkscape:path-effect="#path-effect159" inkscape:original-d="m 188.74077,33.468007 c 0.0931,0.347332 0.18614,0.694665 0.27921,1.041997 0.0424,0.158284 0.0848,0.316561 0.12723,0.474841 0.35338,0.204026 0.70675,0.408044 1.06013,0.612067 0.71956,0.415441 1.4391,0.830866 2.15865,1.246299 0.41484,0.111154 0.82965,0.222303 1.24448,0.333457"/>
                <path style="fill:#cccccc;fill-opacity:1;stroke:#1a1a1a;stroke-width:0.1;stroke-miterlimit:0.6;stroke-dasharray:none;stroke-opacity:1" d="m 194.66853,36.354782 -1.05807,0.821886" id="path160"/>
                <path style="fill:none;fill-opacity:1;stroke:#1a1a1a;stroke-width:0.1;stroke-miterlimit:0.6;stroke-dasharray:none;stroke-opacity:1" d="m 188.74077,33.468007 5.92776,2.886775" id="path161"/>
                <path style="fill:none;fill-opacity:1;stroke:#1a1a1a;stroke-width:0.1;stroke-miterlimit:0.6;stroke-dasharray:none;stroke-opacity:1" d="m 188.74076,33.468007 c 0.19202,0.192015 0.38403,0.384026 0.7869,0.621555 0.40287,0.23753 1.01656,0.520562 1.65315,0.852451 0.63658,0.331889 1.296,0.712607 1.83504,0.991991 0.53904,0.279385 0.95767,0.45742 1.3763,0.635458" id="path163" inkscape:path-effect="#path-effect163" inkscape:original-d="m 188.74076,33.468007 c 0.19202,0.192012 0.38403,0.384024 0.57604,0.576036 0.61373,0.283047 1.22742,0.566083 1.84114,0.849125 0.65945,0.380734 1.31887,0.761452 1.97831,1.14218 0.41864,0.178041 1.2559,0.534114 1.2559,0.534114"/>
                <path style="fill:none;fill-opacity:1;stroke:#1a1a1a;stroke-width:0.1;stroke-miterlimit:0.6;stroke-dasharray:none;stroke-opacity:1" d="m 188.74077,33.468007 c 0.22668,0.297196 0.45336,0.594392 0.85917,0.903448 0.40581,0.309057 0.99074,0.629967 1.45466,0.881974 0.46391,0.252008 0.80679,0.435101 1.23903,0.650628 0.43223,0.215526 0.95379,0.46347 1.27632,0.612487 0.32254,0.149016 0.44604,0.199098 0.56954,0.249181" id="path164" inkscape:path-effect="#path-effect164" inkscape:original-d="m 188.74077,33.468007 c 0.22668,0.297196 0.45336,0.594392 0.68004,0.891588 0.58494,0.32092 1.16987,0.641828 1.75481,0.962742 0.34289,0.183101 0.68577,0.366195 1.02866,0.549292 0.52158,0.247954 1.04314,0.495895 1.5647,0.743844 0.12351,0.05009 0.24701,0.100169 0.37051,0.150252"/>
                <path style="fill:none;fill-opacity:1;stroke:#1a1a1a;stroke-width:0.1;stroke-miterlimit:0.6;stroke-dasharray:none;stroke-opacity:1" d="m 188.74076,33.468007 c 0.21225,0.36963 0.4245,0.73926 0.77244,1.08348 0.34794,0.34422 0.83155,0.663016 1.33033,0.95275 0.49878,0.289735 1.01271,0.550396 1.52602,0.783171 0.51331,0.232776 1.02598,0.437656 1.53866,0.64254" id="path165" inkscape:path-effect="#path-effect165" inkscape:original-d="m 188.74076,33.468007 c 0.21225,0.369631 0.4245,0.739263 0.63676,1.108895 0.48362,0.318806 0.96723,0.637599 1.45084,0.956399 0.51395,0.26067 1.02788,0.52133 1.54181,0.781994 0.51269,0.20489 1.02536,0.409768 1.53804,0.614653" sodipodi:nodetypes="ccccc"/>
                <path style="fill:none;fill-opacity:1;stroke:#1a1a1a;stroke-width:0.1;stroke-miterlimit:0.6;stroke-dasharray:none;stroke-opacity:1" d="m 188.74077,33.468007 c 0.0931,0.34734 0.18614,0.694665 0.25388,0.947472 0.0677,0.252806 0.11015,0.411081 0.30804,0.592236 0.1979,0.181155 0.55127,0.385173 1.08774,0.694905 0.53647,0.309731 1.25601,0.725158 1.8232,0.988452 0.5672,0.263295 0.98201,0.374443 1.39684,0.485596" id="path166" inkscape:path-effect="#path-effect167" inkscape:original-d="m 188.74077,33.468007 c 0.0931,0.347332 0.18614,0.694665 0.27921,1.041997 0.0424,0.158284 0.0848,0.316561 0.12723,0.474841 0.35338,0.204026 0.70675,0.408044 1.06013,0.612067 0.71956,0.415441 1.4391,0.830866 2.15865,1.246299 0.41484,0.111154 0.82965,0.222303 1.24448,0.333457" transform="translate(0,7.2447)"/>
                <path style="fill:none;fill-opacity:1;stroke:#000000;stroke-width:0.1;stroke-miterlimit:0.6;stroke-dasharray:none;stroke-opacity:1" d="m 197.04487,27.286595 c 0,2.431032 0,4.862066 0,7.293098" id="path167" inkscape:path-effect="#path-effect169" inkscape:original-d="m 197.04487,27.286595 c 0,2.431032 0,4.862066 0,7.293098" sodipodi:nodetypes="cc" transform="matrix(-1,0,0,1,390.66828,9.8279613)"/>
                <path style="fill:none;fill-opacity:1;stroke:#1a1a1a;stroke-width:0.1;stroke-miterlimit:0.6;stroke-dasharray:none;stroke-opacity:1" d="m 193.61046,44.421367 1.05807,-0.773489" id="path169"/>
                <path style="fill:none;fill-opacity:1;stroke:#1a1a1a;stroke-width:0.03;stroke-miterlimit:0.6;stroke-dasharray:none;stroke-opacity:1" d="m 194.39214,36.569462 v 7.28046" id="path170"/>
                <path style="fill:none;fill-opacity:1;stroke:#1a1a1a;stroke-width:0.03;stroke-miterlimit:0.6;stroke-dasharray:none;stroke-opacity:1" d="m 194.15075,36.74589 v 7.28046" id="path171"/>
                <path style="fill:none;fill-opacity:1;stroke:#1a1a1a;stroke-width:0.03;stroke-miterlimit:0.6;stroke-dasharray:none;stroke-opacity:1" d="m 193.90936,36.936267 v 7.28046" id="path172"/>
              </g>
            </g>
          </g>
        </g>
        <path style="fill:#ffff00;fill-opacity:1;stroke:#666666;stroke-width:0.0140439;stroke-miterlimit:0.6;stroke-dasharray:none;stroke-opacity:1" d="m 273.44416,91.698385 c -2.17602,-0.101758 -4.30965,-0.523552 -6.39028,-1.263285 -1.35409,-0.481421 -3.0244,-1.282455 -4.84995,-2.325898 -0.80069,-0.457652 -7.09515,-4.087118 -7.11226,-4.101017 -0.019,-0.01546 0.48131,-0.570218 0.55781,-0.618474 0.043,-0.02709 0.78791,0.386581 3.0935,1.717835 3.68647,2.128582 4.01765,2.314129 5.07731,2.844667 1.20094,0.601269 2.14451,1.008783 3.64146,1.572709 1.95371,0.735988 3.52193,1.237098 6.63267,2.119397 l 0.2601,0.07377 -0.33442,-0.0042 c -0.18393,-0.0023 -0.4431,-0.0093 -0.57594,-0.0155 z" id="path108" transform="matrix(0.26458333,0,0,0.26458333,130.1294,4.536855)"/>
        <path style="fill:#ffff00;fill-opacity:1;stroke:#666666;stroke-width:0.0140439;stroke-miterlimit:0.6;stroke-dasharray:none;stroke-opacity:1" d="m 269.57975,89.833149 c -3.22012,-1.102158 -5.13292,-1.940723 -7.46872,-3.274264 -0.56978,-0.325297 -5.72737,-3.298329 -6.10582,-3.519627 -0.0168,-0.0098 0.0752,-0.12899 0.20437,-0.26483 l 0.23489,-0.246982 0.59453,0.337611 c 0.32698,0.185686 1.10451,0.61073 1.72783,0.944543 0.62332,0.333812 1.8774,1.036091 2.78684,1.56062 0.90943,0.524529 2.68186,1.545412 3.93872,2.268628 l 2.28521,1.314939 1.52345,0.626456 c 0.83791,0.344551 1.53043,0.633429 1.53896,0.64195 0.0508,0.05085 -0.21312,-0.03064 -1.26026,-0.389044 z" id="path109" transform="matrix(0.26458333,0,0,0.26458333,130.1294,4.536855)"/>
        <path style="fill:#ffff00;fill-opacity:1;stroke:#666666;stroke-width:0.0140439;stroke-miterlimit:0.6;stroke-dasharray:none;stroke-opacity:1" d="m 271.18386,92.39174 c -0.86067,-0.06734 -1.77497,-0.265582 -3.84909,-0.834573 -2.47205,-0.678155 -3.80051,-1.170125 -5.63247,-2.085873 -1.32461,-0.662136 -1.52686,-0.774906 -5.4717,-3.050905 l -2.2204,-1.281067 0.14601,-0.172625 c 0.0803,-0.09494 0.25457,-0.279438 0.38726,-0.409986 l 0.24124,-0.23736 3.41235,1.96984 c 3.88897,2.244981 4.29442,2.476001 5.13959,2.928465 2.56107,1.371086 4.85706,2.180228 7.42598,2.61703 0.8889,0.151145 1.85225,0.238331 3.40611,0.308265 0.15709,0.0071 0.11117,0.0215 -0.29727,0.0934 -0.91537,0.161149 -1.89217,0.217623 -2.68761,0.155386 z" id="path110" transform="matrix(0.26458333,0,0,0.26458333,130.1294,4.536855)"/>
        <path style="fill:#ffff00;fill-opacity:1;stroke:#666666;stroke-width:0.0140439;stroke-miterlimit:0.6;stroke-dasharray:none;stroke-opacity:1" d="m 270.34148,92.892747 c -2.32877,-0.278106 -5.44387,-1.175795 -7.98892,-2.302196 -0.57012,-0.252327 -1.94734,-0.936297 -2.52673,-1.254858 -0.2248,-0.123602 -1.64191,-0.93519 -3.14912,-1.80353 l -2.74039,-1.5788 v -0.182392 c 0,-0.100316 0.0125,-0.175307 0.0279,-0.166647 0.0153,0.0087 0.74687,0.430292 1.62565,0.936958 0.87878,0.506665 2.02417,1.166698 2.54531,1.466739 4.08831,2.35381 5.58644,2.999606 9.31137,4.013838 2.07824,0.565867 2.72436,0.700432 3.75595,0.782233 0.49342,0.03913 1.21979,0.03102 1.87011,-0.02087 0.1768,-0.01411 0.15925,-0.0061 -0.13005,0.05943 -0.4482,0.101501 -1.93141,0.13007 -2.60105,0.0501 z" id="path111" transform="matrix(0.26458333,0,0,0.26458333,130.1294,4.536855)"/>
        <path style="fill:#ffff00;fill-opacity:1;stroke:#1a1a1a;stroke-width:0.00842633;stroke-miterlimit:0.6;stroke-dasharray:none;stroke-opacity:1" d="m 293.76947,105.37516 c -2.71644,-0.79753 -4.79707,-1.75457 -8.99219,-4.13621 -5.26263,-2.987685 -6.14717,-3.596816 -6.6425,-4.574301 -0.15588,-0.307602 -0.86337,-2.719205 -0.86337,-2.942924 0,-0.03864 0.17271,0.177447 0.3838,0.480191 0.91231,1.308434 1.88745,2.318712 3.18335,3.298057 2.91537,2.203223 7.1635,4.450087 12.74512,6.740977 0.98097,0.40262 1.84706,0.75848 1.92466,0.7908 0.12292,0.0512 0.0929,0.0941 -0.23291,0.33331 -0.20569,0.15099 -0.43639,0.27149 -0.51266,0.26777 -0.0763,-0.004 -0.52326,-0.11967 -0.9933,-0.25767 z" id="path182" transform="matrix(0.26458333,0,0,0.26458333,130.1294,4.536855)"/>
        <path style="fill:#ffff00;fill-opacity:1;stroke:#1a1a1a;stroke-width:0.00842633;stroke-miterlimit:0.6;stroke-dasharray:none;stroke-opacity:1" d="m 294.25252,104.01633 c -2.77315,-1.13033 -4.15503,-1.748 -6.20535,-2.77367 -4.23869,-2.1204 -7.10635,-4.000013 -8.72332,-5.717713 -0.35372,-0.375758 -0.62836,-0.697969 -0.61031,-0.716025 0.0181,-0.01806 0.25054,0.151854 0.51662,0.377578 0.6158,0.522402 2.31107,1.641333 3.65208,2.410482 3.60779,2.069297 9.53634,5.076718 12.79347,6.489848 0.40258,0.17466 0.74506,0.32711 0.76107,0.33878 0.0321,0.0234 -0.30416,0.31712 -0.36353,0.31747 -0.0204,1.2e-4 -0.83976,-0.32692 -1.82073,-0.72675 z" id="path183" transform="matrix(0.26458333,0,0,0.26458333,130.1294,4.536855)"/>
        <path style="fill:#ffff00;fill-opacity:1;stroke:#1a1a1a;stroke-width:0.00842633;stroke-miterlimit:0.6;stroke-dasharray:none;stroke-opacity:1" d="m 295.73883,103.6082 c -5.22476,-2.33044 -12.65903,-6.253401 -15.16038,-7.999923 -0.68664,-0.479436 -1.84073,-1.418054 -1.79716,-1.461626 0.0134,-0.01342 0.40656,0.19473 0.87363,0.462564 0.46707,0.267834 1.9528,1.041174 3.30163,1.718534 2.49178,1.251334 3.86563,1.978211 7.05998,3.735311 2.07779,1.14291 4.73745,2.47158 6.30231,3.14841 l 1.10022,0.47586 -0.23271,0.19582 c -0.12799,0.1077 -0.27195,0.19431 -0.31991,0.19247 -0.048,-0.002 -0.55538,-0.21218 -1.12761,-0.46742 z" id="path184" transform="matrix(0.26458333,0,0,0.26458333,130.1294,4.536855)"/>
        <path style="fill:#ffff00;fill-opacity:1;stroke:#1a1a1a;stroke-width:0.00842633;stroke-miterlimit:0.6;stroke-dasharray:none;stroke-opacity:1" d="m 296.5563,102.81053 c -1.71925,-0.75576 -4.19408,-1.9923 -6.24251,-3.119058 -3.20992,-1.76565 -4.57676,-2.489383 -6.8377,-3.620512 -1.22584,-0.613278 -2.57994,-1.305915 -3.00911,-1.539192 -0.85374,-0.464051 -2.48327,-1.519741 -2.42923,-1.573778 0.04,-0.04004 20.41433,9.87073 20.41201,9.92912 -0.002,0.0561 -0.566,0.44898 -0.64197,0.4474 -0.0343,-7.1e-4 -0.59751,-0.23651 -1.25149,-0.52398 z" id="path185" transform="matrix(0.26458333,0,0,0.26458333,130.1294,4.536855)"/>
        <path style="fill:#ffff00;fill-opacity:1;stroke:#1a1a1a;stroke-width:0.00842633;stroke-miterlimit:0.6;stroke-dasharray:none;stroke-opacity:1" d="m 298.00835,117.29317 0.003,-13.47431 0.33152,-0.24388 0.33153,-0.24388 v 13.47803 13.47804 l -0.33442,0.24016 -0.33442,0.24016 z" id="path186" transform="matrix(0.26458333,0,0,0.26458333,130.1294,4.536855)"/>
        <path style="fill:#ffff00;fill-opacity:1;stroke:#1a1a1a;stroke-width:0.00842633;stroke-miterlimit:0.6;stroke-dasharray:none;stroke-opacity:1" d="m 297.03935,118.01811 v -13.40899 l 0.3235,-0.26508 c 0.17792,-0.14579 0.34513,-0.26508 0.37158,-0.26508 0.0264,0 0.0481,6.04657 0.0481,13.43682 v 13.43681 l -0.33659,0.23725 c -0.18513,0.13049 -0.35234,0.23725 -0.37158,0.23725 -0.0192,0 -0.035,-6.03404 -0.035,-13.40898 z" id="path187" transform="matrix(0.26458333,0,0,0.26458333,130.1294,4.536855)"/>
        <path style="fill:#ffff00;fill-opacity:1;stroke:#1a1a1a;stroke-width:0.00842633;stroke-miterlimit:0.6;stroke-dasharray:none;stroke-opacity:1" d="m 296.14757,118.6981 v -13.40521 l 0.27868,-0.22154 c 0.15328,-0.12185 0.32049,-0.24647 0.37158,-0.27693 0.0742,-0.0442 0.0927,2.6518 0.092,13.38154 l -9.2e-4,13.43692 -0.27674,0.18579 c -0.15221,0.10219 -0.319,0.21253 -0.37066,0.24522 -0.0756,0.0478 -0.0939,-2.56203 -0.0939,-13.34579 z" id="path188" transform="matrix(0.26458333,0,0,0.26458333,130.1294,4.536855)"/>
        <path style="fill:#ffff00;fill-opacity:1;stroke:#1a1a1a;stroke-width:0.00842633;stroke-miterlimit:0.6;stroke-dasharray:none;stroke-opacity:1" d="m 295.18146,119.43666 v -13.40763 l 0.40894,-0.30876 0.40894,-0.30875 -0.0188,13.4274 -0.0188,13.4274 -0.39016,0.28898 -0.39016,0.28899 z" id="path189" transform="matrix(0.26458333,0,0,0.26458333,130.1294,4.536855)"/>
      </g>
      <ellipse style="fill:none;fill-opacity:1;stroke:#808080;stroke-width:0.139704;stroke-miterlimit:0.6;stroke-dasharray:none;stroke-opacity:1" id="ellipse209" cx="170.63065" cy="45.242329" rx="5.2129064" ry="4.4297714" transform="matrix(0.99554186,-0.09432078,0.0456084,0.9989594,0,0)"/>
    </g>
  </g>
</svg>